<?xml version="1.0" encoding="UTF-8" standalone="no"?>
<!DOCTYPE svg PUBLIC "-//W3C//DTD SVG 1.1//EN"
 "http://www.w3.org/Graphics/SVG/1.1/DTD/svg11.dtd">
<!-- Generated by graphviz version 2.40.1 (20161225.0304)
 -->
<!-- Title: snakemake_dag Pages: 1 -->
<svg width="418pt" height="332pt"
 viewBox="0.00 0.00 418.00 332.00" xmlns="http://www.w3.org/2000/svg" xmlns:xlink="http://www.w3.org/1999/xlink">
<g id="graph0" class="graph" transform="scale(1 1) rotate(0) translate(4 328)">
<title>snakemake_dag</title>
<polygon fill="#ffffff" stroke="transparent" points="-4,4 -4,-328 414,-328 414,4 -4,4"/>
<!-- 0 -->
<g id="node1" class="node">
<title>0</title>
<path fill="none" stroke="#56d8a9" stroke-width="2" d="M246.5,-36C246.5,-36 216.5,-36 216.5,-36 210.5,-36 204.5,-30 204.5,-24 204.5,-24 204.5,-12 204.5,-12 204.5,-6 210.5,0 216.5,0 216.5,0 246.5,0 246.5,0 252.5,0 258.5,-6 258.5,-12 258.5,-12 258.5,-24 258.5,-24 258.5,-30 252.5,-36 246.5,-36"/>
<text text-anchor="middle" x="231.5" y="-15.5" font-family="sans" font-size="10.00" fill="#000000">all</text>
</g>
<!-- 1 -->
<g id="node2" class="node">
<title>1</title>
<path fill="none" stroke="#d8cb56" stroke-width="2" stroke-dasharray="5,2" d="M220.5,-252C220.5,-252 184.5,-252 184.5,-252 178.5,-252 172.5,-246 172.5,-240 172.5,-240 172.5,-228 172.5,-228 172.5,-222 178.5,-216 184.5,-216 184.5,-216 220.5,-216 220.5,-216 226.5,-216 232.5,-222 232.5,-228 232.5,-228 232.5,-240 232.5,-240 232.5,-246 226.5,-252 220.5,-252"/>
<text text-anchor="middle" x="202.5" y="-231.5" font-family="sans" font-size="10.00" fill="#000000">annotate</text>
</g>
<!-- 1&#45;&gt;0 -->
<g id="edge1" class="edge">
<title>1&#45;&gt;0</title>
<path fill="none" stroke="#c0c0c0" stroke-width="2" d="M194.8321,-215.8756C190.8861,-205.5642 186.4945,-192.2907 184.5,-180 181.9371,-164.2066 181.6589,-159.7457 184.5,-144 190.8683,-108.7063 206.5162,-70.4021 218.0147,-45.4075"/>
<polygon fill="#c0c0c0" stroke="#c0c0c0" stroke-width="2" points="221.2581,-46.7348 222.343,-36.1956 214.9226,-43.7579 221.2581,-46.7348"/>
</g>
<!-- 6 -->
<g id="node7" class="node">
<title>6</title>
<path fill="none" stroke="#d85656" stroke-width="2" stroke-dasharray="5,2" d="M275,-180C275,-180 206,-180 206,-180 200,-180 194,-174 194,-168 194,-168 194,-156 194,-156 194,-150 200,-144 206,-144 206,-144 275,-144 275,-144 281,-144 287,-150 287,-156 287,-156 287,-168 287,-168 287,-174 281,-180 275,-180"/>
<text text-anchor="middle" x="240.5" y="-159.5" font-family="sans" font-size="10.00" fill="#000000">assign_AS_type</text>
</g>
<!-- 1&#45;&gt;6 -->
<g id="edge9" class="edge">
<title>1&#45;&gt;6</title>
<path fill="none" stroke="#c0c0c0" stroke-width="2" d="M212.089,-215.8314C216.3317,-207.7925 221.4121,-198.1666 226.096,-189.2918"/>
<polygon fill="#c0c0c0" stroke="#c0c0c0" stroke-width="2" points="229.2096,-190.8908 230.7819,-180.4133 223.0189,-187.6235 229.2096,-190.8908"/>
</g>
<!-- 2 -->
<g id="node3" class="node">
<title>2</title>
<path fill="none" stroke="#5692d8" stroke-width="2" stroke-dasharray="5,2" d="M65,-324C65,-324 12,-324 12,-324 6,-324 0,-318 0,-312 0,-312 0,-300 0,-300 0,-294 6,-288 12,-288 12,-288 65,-288 65,-288 71,-288 77,-294 77,-300 77,-300 77,-312 77,-312 77,-318 71,-324 65,-324"/>
<text text-anchor="middle" x="38.5" y="-303.5" font-family="sans" font-size="10.00" fill="#000000">parse_majiq</text>
</g>
<!-- 2&#45;&gt;1 -->
<g id="edge5" class="edge">
<title>2&#45;&gt;1</title>
<path fill="none" stroke="#c0c0c0" stroke-width="2" d="M77.3657,-288.937C103.2644,-277.5668 137.1883,-262.6734 163.1802,-251.2624"/>
<polygon fill="#c0c0c0" stroke="#c0c0c0" stroke-width="2" points="164.6182,-254.4536 172.3677,-247.2288 161.8042,-248.044 164.6182,-254.4536"/>
</g>
<!-- 3 -->
<g id="node4" class="node">
<title>3</title>
<path fill="none" stroke="#56d873" stroke-width="2" stroke-dasharray="5,2" d="M179.5,-324C179.5,-324 107.5,-324 107.5,-324 101.5,-324 95.5,-318 95.5,-312 95.5,-312 95.5,-300 95.5,-300 95.5,-294 101.5,-288 107.5,-288 107.5,-288 179.5,-288 179.5,-288 185.5,-288 191.5,-294 191.5,-300 191.5,-300 191.5,-312 191.5,-312 191.5,-318 185.5,-324 179.5,-324"/>
<text text-anchor="middle" x="143.5" y="-303.5" font-family="sans" font-size="10.00" fill="#000000">parse_leafcutter</text>
</g>
<!-- 3&#45;&gt;1 -->
<g id="edge6" class="edge">
<title>3&#45;&gt;1</title>
<path fill="none" stroke="#c0c0c0" stroke-width="2" d="M158.3882,-287.8314C165.253,-279.454 173.5301,-269.3531 181.0511,-260.1749"/>
<polygon fill="#c0c0c0" stroke="#c0c0c0" stroke-width="2" points="183.7803,-262.3665 187.4114,-252.4133 178.3659,-257.9297 183.7803,-262.3665"/>
</g>
<!-- 4 -->
<g id="node5" class="node">
<title>4</title>
<path fill="none" stroke="#afd856" stroke-width="2" stroke-dasharray="5,2" d="M303,-324C303,-324 222,-324 222,-324 216,-324 210,-318 210,-312 210,-312 210,-300 210,-300 210,-294 216,-288 222,-288 222,-288 303,-288 303,-288 309,-288 315,-294 315,-300 315,-300 315,-312 315,-312 315,-318 309,-324 303,-324"/>
<text text-anchor="middle" x="262.5" y="-303.5" font-family="sans" font-size="10.00" fill="#000000">parse_junctionseq</text>
</g>
<!-- 4&#45;&gt;1 -->
<g id="edge7" class="edge">
<title>4&#45;&gt;1</title>
<path fill="none" stroke="#c0c0c0" stroke-width="2" d="M247.3595,-287.8314C240.3783,-279.454 231.9609,-269.3531 224.3124,-260.1749"/>
<polygon fill="#c0c0c0" stroke="#c0c0c0" stroke-width="2" points="226.9351,-257.8548 217.8444,-252.4133 221.5575,-262.3362 226.9351,-257.8548"/>
</g>
<!-- 5 -->
<g id="node6" class="node">
<title>5</title>
<path fill="none" stroke="#56c9d8" stroke-width="2" stroke-dasharray="5,2" d="M398,-324C398,-324 345,-324 345,-324 339,-324 333,-318 333,-312 333,-312 333,-300 333,-300 333,-294 339,-288 345,-288 345,-288 398,-288 398,-288 404,-288 410,-294 410,-300 410,-300 410,-312 410,-312 410,-318 404,-324 398,-324"/>
<text text-anchor="middle" x="371.5" y="-303.5" font-family="sans" font-size="10.00" fill="#000000">parse_rmats</text>
</g>
<!-- 5&#45;&gt;1 -->
<g id="edge8" class="edge">
<title>5&#45;&gt;1</title>
<path fill="none" stroke="#c0c0c0" stroke-width="2" d="M332.728,-289.4817C305.5302,-277.8945 269.2878,-262.454 241.9429,-250.8041"/>
<polygon fill="#c0c0c0" stroke="#c0c0c0" stroke-width="2" points="243.2429,-247.5536 232.6712,-246.854 240.4992,-253.9935 243.2429,-247.5536"/>
</g>
<!-- 6&#45;&gt;0 -->
<g id="edge2" class="edge">
<title>6&#45;&gt;0</title>
<path fill="none" stroke="#c0c0c0" stroke-width="2" d="M232.8321,-143.8756C228.8861,-133.5642 224.4945,-120.2907 222.5,-108 219.1515,-87.3654 221.7193,-63.8538 224.9558,-46.0373"/>
<polygon fill="#c0c0c0" stroke="#c0c0c0" stroke-width="2" points="228.4313,-46.5053 226.9545,-36.014 221.5665,-45.1364 228.4313,-46.5053"/>
</g>
<!-- 7 -->
<g id="node8" class="node">
<title>7</title>
<path fill="none" stroke="#70d856" stroke-width="2" stroke-dasharray="5,2" d="M275.5,-108C275.5,-108 243.5,-108 243.5,-108 237.5,-108 231.5,-102 231.5,-96 231.5,-96 231.5,-84 231.5,-84 231.5,-78 237.5,-72 243.5,-72 243.5,-72 275.5,-72 275.5,-72 281.5,-72 287.5,-78 287.5,-84 287.5,-84 287.5,-96 287.5,-96 287.5,-102 281.5,-108 275.5,-108"/>
<text text-anchor="middle" x="259.5" y="-87.5" font-family="sans" font-size="10.00" fill="#000000">simplify</text>
</g>
<!-- 6&#45;&gt;7 -->
<g id="edge10" class="edge">
<title>6&#45;&gt;7</title>
<path fill="none" stroke="#c0c0c0" stroke-width="2" d="M245.2945,-143.8314C247.3489,-136.0463 249.796,-126.7729 252.0756,-118.1347"/>
<polygon fill="#c0c0c0" stroke="#c0c0c0" stroke-width="2" points="255.4735,-118.9753 254.6409,-108.4133 248.7052,-117.1892 255.4735,-118.9753"/>
</g>
<!-- 7&#45;&gt;0 -->
<g id="edge3" class="edge">
<title>7&#45;&gt;0</title>
<path fill="none" stroke="#c0c0c0" stroke-width="2" d="M252.4344,-71.8314C249.374,-63.9617 245.7221,-54.5712 242.3318,-45.8533"/>
<polygon fill="#c0c0c0" stroke="#c0c0c0" stroke-width="2" points="245.5473,-44.4647 238.6607,-36.4133 239.0232,-47.0019 245.5473,-44.4647"/>
</g>
<!-- 8 -->
<g id="node9" class="node">
<title>8</title>
<path fill="none" stroke="#d88d56" stroke-width="2" d="M397.5,-108C397.5,-108 317.5,-108 317.5,-108 311.5,-108 305.5,-102 305.5,-96 305.5,-96 305.5,-84 305.5,-84 305.5,-78 311.5,-72 317.5,-72 317.5,-72 397.5,-72 397.5,-72 403.5,-72 409.5,-78 409.5,-84 409.5,-84 409.5,-96 409.5,-96 409.5,-102 403.5,-108 397.5,-108"/>
<text text-anchor="middle" x="357.5" y="-87.5" font-family="sans" font-size="10.00" fill="#000000">parse_gffcompare</text>
</g>
<!-- 8&#45;&gt;0 -->
<g id="edge4" class="edge">
<title>8&#45;&gt;0</title>
<path fill="none" stroke="#c0c0c0" stroke-width="2" d="M325.7049,-71.8314C307.9119,-61.664 285.6762,-48.9578 267.2764,-38.4437"/>
<polygon fill="#c0c0c0" stroke="#c0c0c0" stroke-width="2" points="269.0071,-35.4016 258.5882,-33.479 265.5341,-41.4793 269.0071,-35.4016"/>
</g>
</g>
</svg>
