<?xml version="1.0" encoding="UTF-8" standalone="no"?>
<!DOCTYPE svg PUBLIC "-//W3C//DTD SVG 1.1//EN"
 "http://www.w3.org/Graphics/SVG/1.1/DTD/svg11.dtd">
<!-- Generated by graphviz version 2.40.1 (20161225.0304)
 -->
<!-- Title: snakemake_dag Pages: 1 -->
<svg width="2047pt" height="404pt"
 viewBox="0.00 0.00 2046.50 404.00" xmlns="http://www.w3.org/2000/svg" xmlns:xlink="http://www.w3.org/1999/xlink">
<g id="graph0" class="graph" transform="scale(1 1) rotate(0) translate(4 400)">
<title>snakemake_dag</title>
<polygon fill="#ffffff" stroke="transparent" points="-4,4 -4,-400 2042.5014,-400 2042.5014,4 -4,4"/>
<!-- 0 -->
<g id="node1" class="node">
<title>0</title>
<path fill="none" stroke="#56a2d8" stroke-width="2" stroke-dasharray="5,2" d="M821.0014,-36C821.0014,-36 791.0014,-36 791.0014,-36 785.0014,-36 779.0014,-30 779.0014,-24 779.0014,-24 779.0014,-12 779.0014,-12 779.0014,-6 785.0014,0 791.0014,0 791.0014,0 821.0014,0 821.0014,0 827.0014,0 833.0014,-6 833.0014,-12 833.0014,-12 833.0014,-24 833.0014,-24 833.0014,-30 827.0014,-36 821.0014,-36"/>
<text text-anchor="middle" x="806.0014" y="-15.5" font-family="sans" font-size="10.00" fill="#000000">all</text>
</g>
<!-- 1 -->
<g id="node2" class="node">
<title>1</title>
<path fill="none" stroke="#d8a456" stroke-width="2" stroke-dasharray="5,2" d="M983.0014,-396C983.0014,-396 951.0014,-396 951.0014,-396 945.0014,-396 939.0014,-390 939.0014,-384 939.0014,-384 939.0014,-372 939.0014,-372 939.0014,-366 945.0014,-360 951.0014,-360 951.0014,-360 983.0014,-360 983.0014,-360 989.0014,-360 995.0014,-366 995.0014,-372 995.0014,-372 995.0014,-384 995.0014,-384 995.0014,-390 989.0014,-396 983.0014,-396"/>
<text text-anchor="middle" x="967.0014" y="-375.5" font-family="sans" font-size="10.00" fill="#000000">symlink</text>
</g>
<!-- 1&#45;&gt;0 -->
<g id="edge1" class="edge">
<title>1&#45;&gt;0</title>
<path fill="none" stroke="#c0c0c0" stroke-width="2" d="M938.8737,-377.3478C785.7026,-373.6771 57.6771,-354.6587 22.0014,-324 -9.0041,-297.3547 3.0014,-274.8816 3.0014,-234 3.0014,-234 3.0014,-234 3.0014,-162 3.0014,-83.1687 610.3256,-32.5413 768.6355,-20.6834"/>
<polygon fill="#c0c0c0" stroke="#c0c0c0" stroke-width="2" points="769.1104,-24.1579 778.824,-19.9276 768.5924,-17.1771 769.1104,-24.1579"/>
</g>
<!-- 6 -->
<g id="node7" class="node">
<title>6</title>
<path fill="none" stroke="#56d87b" stroke-width="2" stroke-dasharray="5,2" d="M541.5014,-324C541.5014,-324 448.5014,-324 448.5014,-324 442.5014,-324 436.5014,-318 436.5014,-312 436.5014,-312 436.5014,-300 436.5014,-300 436.5014,-294 442.5014,-288 448.5014,-288 448.5014,-288 541.5014,-288 541.5014,-288 547.5014,-288 553.5014,-294 553.5014,-300 553.5014,-300 553.5014,-312 553.5014,-312 553.5014,-318 547.5014,-324 541.5014,-324"/>
<text text-anchor="middle" x="495.0014" y="-309" font-family="sans" font-size="10.00" fill="#000000">leafcutter_bam2junc</text>
<text text-anchor="middle" x="495.0014" y="-298" font-family="sans" font-size="10.00" fill="#000000">name: mix1_1</text>
</g>
<!-- 1&#45;&gt;6 -->
<g id="edge39" class="edge">
<title>1&#45;&gt;6</title>
<path fill="none" stroke="#c0c0c0" stroke-width="2" d="M938.8834,-375.4721C874.3297,-369.4073 710.4465,-352.5252 563.9376,-324.0488"/>
<polygon fill="#c0c0c0" stroke="#c0c0c0" stroke-width="2" points="564.3551,-320.5639 553.8675,-322.0675 563.0037,-327.4322 564.3551,-320.5639"/>
</g>
<!-- 7 -->
<g id="node8" class="node">
<title>7</title>
<path fill="none" stroke="#56d87b" stroke-width="2" stroke-dasharray="5,2" d="M136.5014,-324C136.5014,-324 43.5014,-324 43.5014,-324 37.5014,-324 31.5014,-318 31.5014,-312 31.5014,-312 31.5014,-300 31.5014,-300 31.5014,-294 37.5014,-288 43.5014,-288 43.5014,-288 136.5014,-288 136.5014,-288 142.5014,-288 148.5014,-294 148.5014,-300 148.5014,-300 148.5014,-312 148.5014,-312 148.5014,-318 142.5014,-324 136.5014,-324"/>
<text text-anchor="middle" x="90.0014" y="-309" font-family="sans" font-size="10.00" fill="#000000">leafcutter_bam2junc</text>
<text text-anchor="middle" x="90.0014" y="-298" font-family="sans" font-size="10.00" fill="#000000">name: mix2_1</text>
</g>
<!-- 1&#45;&gt;7 -->
<g id="edge40" class="edge">
<title>1&#45;&gt;7</title>
<path fill="none" stroke="#c0c0c0" stroke-width="2" d="M938.6639,-376.8572C816.2797,-371.8091 331.8171,-350.6434 158.6569,-324.0579"/>
<polygon fill="#c0c0c0" stroke="#c0c0c0" stroke-width="2" points="159.112,-320.5863 148.6846,-322.4627 158.0063,-327.4984 159.112,-320.5863"/>
</g>
<!-- 8 -->
<g id="node9" class="node">
<title>8</title>
<path fill="none" stroke="#56d87b" stroke-width="2" stroke-dasharray="5,2" d="M676.5014,-324C676.5014,-324 583.5014,-324 583.5014,-324 577.5014,-324 571.5014,-318 571.5014,-312 571.5014,-312 571.5014,-300 571.5014,-300 571.5014,-294 577.5014,-288 583.5014,-288 583.5014,-288 676.5014,-288 676.5014,-288 682.5014,-288 688.5014,-294 688.5014,-300 688.5014,-300 688.5014,-312 688.5014,-312 688.5014,-318 682.5014,-324 676.5014,-324"/>
<text text-anchor="middle" x="630.0014" y="-309" font-family="sans" font-size="10.00" fill="#000000">leafcutter_bam2junc</text>
<text text-anchor="middle" x="630.0014" y="-298" font-family="sans" font-size="10.00" fill="#000000">name: mix3_1</text>
</g>
<!-- 1&#45;&gt;8 -->
<g id="edge41" class="edge">
<title>1&#45;&gt;8</title>
<path fill="none" stroke="#c0c0c0" stroke-width="2" d="M938.9991,-372.958C891.6427,-364.3065 792.5365,-345.6653 698.5113,-324.0457"/>
<polygon fill="#c0c0c0" stroke="#c0c0c0" stroke-width="2" points="699.0823,-320.5854 688.5505,-321.7395 697.5033,-327.405 699.0823,-320.5854"/>
</g>
<!-- 9 -->
<g id="node10" class="node">
<title>9</title>
<path fill="none" stroke="#56d87b" stroke-width="2" stroke-dasharray="5,2" d="M946.5014,-324C946.5014,-324 853.5014,-324 853.5014,-324 847.5014,-324 841.5014,-318 841.5014,-312 841.5014,-312 841.5014,-300 841.5014,-300 841.5014,-294 847.5014,-288 853.5014,-288 853.5014,-288 946.5014,-288 946.5014,-288 952.5014,-288 958.5014,-294 958.5014,-300 958.5014,-300 958.5014,-312 958.5014,-312 958.5014,-318 952.5014,-324 946.5014,-324"/>
<text text-anchor="middle" x="900.0014" y="-309" font-family="sans" font-size="10.00" fill="#000000">leafcutter_bam2junc</text>
<text text-anchor="middle" x="900.0014" y="-298" font-family="sans" font-size="10.00" fill="#000000">name: mix1_2</text>
</g>
<!-- 1&#45;&gt;9 -->
<g id="edge42" class="edge">
<title>1&#45;&gt;9</title>
<path fill="none" stroke="#c0c0c0" stroke-width="2" d="M950.0944,-359.8314C942.2201,-351.3694 932.7094,-341.1489 924.1001,-331.8971"/>
<polygon fill="#c0c0c0" stroke="#c0c0c0" stroke-width="2" points="926.5105,-329.3497 917.1359,-324.4133 921.386,-334.1183 926.5105,-329.3497"/>
</g>
<!-- 10 -->
<g id="node11" class="node">
<title>10</title>
<path fill="none" stroke="#56d87b" stroke-width="2" stroke-dasharray="5,2" d="M406.5014,-324C406.5014,-324 313.5014,-324 313.5014,-324 307.5014,-324 301.5014,-318 301.5014,-312 301.5014,-312 301.5014,-300 301.5014,-300 301.5014,-294 307.5014,-288 313.5014,-288 313.5014,-288 406.5014,-288 406.5014,-288 412.5014,-288 418.5014,-294 418.5014,-300 418.5014,-300 418.5014,-312 418.5014,-312 418.5014,-318 412.5014,-324 406.5014,-324"/>
<text text-anchor="middle" x="360.0014" y="-309" font-family="sans" font-size="10.00" fill="#000000">leafcutter_bam2junc</text>
<text text-anchor="middle" x="360.0014" y="-298" font-family="sans" font-size="10.00" fill="#000000">name: mix2_2</text>
</g>
<!-- 1&#45;&gt;10 -->
<g id="edge43" class="edge">
<title>1&#45;&gt;10</title>
<path fill="none" stroke="#c0c0c0" stroke-width="2" d="M938.9551,-376.8071C859.9461,-373.1072 628.7772,-359.9491 428.8044,-324.1814"/>
<polygon fill="#c0c0c0" stroke="#c0c0c0" stroke-width="2" points="429.1682,-320.6904 418.7042,-322.3505 427.9196,-327.5781 429.1682,-320.6904"/>
</g>
<!-- 11 -->
<g id="node12" class="node">
<title>11</title>
<path fill="none" stroke="#56d87b" stroke-width="2" stroke-dasharray="5,2" d="M271.5014,-324C271.5014,-324 178.5014,-324 178.5014,-324 172.5014,-324 166.5014,-318 166.5014,-312 166.5014,-312 166.5014,-300 166.5014,-300 166.5014,-294 172.5014,-288 178.5014,-288 178.5014,-288 271.5014,-288 271.5014,-288 277.5014,-288 283.5014,-294 283.5014,-300 283.5014,-300 283.5014,-312 283.5014,-312 283.5014,-318 277.5014,-324 271.5014,-324"/>
<text text-anchor="middle" x="225.0014" y="-309" font-family="sans" font-size="10.00" fill="#000000">leafcutter_bam2junc</text>
<text text-anchor="middle" x="225.0014" y="-298" font-family="sans" font-size="10.00" fill="#000000">name: mix3_2</text>
</g>
<!-- 1&#45;&gt;11 -->
<g id="edge44" class="edge">
<title>1&#45;&gt;11</title>
<path fill="none" stroke="#c0c0c0" stroke-width="2" d="M938.802,-377.5826C846.9699,-375.8381 548.2174,-367.1311 293.8622,-324.1585"/>
<polygon fill="#c0c0c0" stroke="#c0c0c0" stroke-width="2" points="294.1394,-320.6551 283.6923,-322.4177 292.9584,-327.5547 294.1394,-320.6551"/>
</g>
<!-- 12 -->
<g id="node13" class="node">
<title>12</title>
<path fill="none" stroke="#56d87b" stroke-width="2" stroke-dasharray="5,2" d="M811.5014,-324C811.5014,-324 718.5014,-324 718.5014,-324 712.5014,-324 706.5014,-318 706.5014,-312 706.5014,-312 706.5014,-300 706.5014,-300 706.5014,-294 712.5014,-288 718.5014,-288 718.5014,-288 811.5014,-288 811.5014,-288 817.5014,-288 823.5014,-294 823.5014,-300 823.5014,-300 823.5014,-312 823.5014,-312 823.5014,-318 817.5014,-324 811.5014,-324"/>
<text text-anchor="middle" x="765.0014" y="-309" font-family="sans" font-size="10.00" fill="#000000">leafcutter_bam2junc</text>
<text text-anchor="middle" x="765.0014" y="-298" font-family="sans" font-size="10.00" fill="#000000">name: mix1_3</text>
</g>
<!-- 1&#45;&gt;12 -->
<g id="edge45" class="edge">
<title>1&#45;&gt;12</title>
<path fill="none" stroke="#c0c0c0" stroke-width="2" d="M938.9141,-367.9887C909.7566,-357.5959 863.2398,-341.0157 825.6484,-327.6168"/>
<polygon fill="#c0c0c0" stroke="#c0c0c0" stroke-width="2" points="826.398,-324.1683 815.8033,-324.1076 824.0477,-330.762 826.398,-324.1683"/>
</g>
<!-- 13 -->
<g id="node14" class="node">
<title>13</title>
<path fill="none" stroke="#56d87b" stroke-width="2" stroke-dasharray="5,2" d="M1081.5014,-324C1081.5014,-324 988.5014,-324 988.5014,-324 982.5014,-324 976.5014,-318 976.5014,-312 976.5014,-312 976.5014,-300 976.5014,-300 976.5014,-294 982.5014,-288 988.5014,-288 988.5014,-288 1081.5014,-288 1081.5014,-288 1087.5014,-288 1093.5014,-294 1093.5014,-300 1093.5014,-300 1093.5014,-312 1093.5014,-312 1093.5014,-318 1087.5014,-324 1081.5014,-324"/>
<text text-anchor="middle" x="1035.0014" y="-309" font-family="sans" font-size="10.00" fill="#000000">leafcutter_bam2junc</text>
<text text-anchor="middle" x="1035.0014" y="-298" font-family="sans" font-size="10.00" fill="#000000">name: mix2_3</text>
</g>
<!-- 1&#45;&gt;13 -->
<g id="edge46" class="edge">
<title>1&#45;&gt;13</title>
<path fill="none" stroke="#c0c0c0" stroke-width="2" d="M984.1606,-359.8314C992.1525,-351.3694 1001.8052,-341.1489 1010.543,-331.8971"/>
<polygon fill="#c0c0c0" stroke="#c0c0c0" stroke-width="2" points="1013.2893,-334.0866 1017.6111,-324.4133 1008.2002,-329.2802 1013.2893,-334.0866"/>
</g>
<!-- 14 -->
<g id="node15" class="node">
<title>14</title>
<path fill="none" stroke="#56d87b" stroke-width="2" stroke-dasharray="5,2" d="M1756.5014,-324C1756.5014,-324 1663.5014,-324 1663.5014,-324 1657.5014,-324 1651.5014,-318 1651.5014,-312 1651.5014,-312 1651.5014,-300 1651.5014,-300 1651.5014,-294 1657.5014,-288 1663.5014,-288 1663.5014,-288 1756.5014,-288 1756.5014,-288 1762.5014,-288 1768.5014,-294 1768.5014,-300 1768.5014,-300 1768.5014,-312 1768.5014,-312 1768.5014,-318 1762.5014,-324 1756.5014,-324"/>
<text text-anchor="middle" x="1710.0014" y="-309" font-family="sans" font-size="10.00" fill="#000000">leafcutter_bam2junc</text>
<text text-anchor="middle" x="1710.0014" y="-298" font-family="sans" font-size="10.00" fill="#000000">name: mix3_3</text>
</g>
<!-- 1&#45;&gt;14 -->
<g id="edge47" class="edge">
<title>1&#45;&gt;14</title>
<path fill="none" stroke="#c0c0c0" stroke-width="2" d="M995.2425,-377.5864C1087.2106,-375.8538 1386.4056,-367.1787 1641.126,-324.1607"/>
<polygon fill="#c0c0c0" stroke="#c0c0c0" stroke-width="2" points="1642.0441,-327.5546 1651.3105,-322.4181 1640.8635,-320.6548 1642.0441,-327.5546"/>
</g>
<!-- 15 -->
<g id="node16" class="node">
<title>15</title>
<path fill="none" stroke="#56d87b" stroke-width="2" stroke-dasharray="5,2" d="M1216.5014,-324C1216.5014,-324 1123.5014,-324 1123.5014,-324 1117.5014,-324 1111.5014,-318 1111.5014,-312 1111.5014,-312 1111.5014,-300 1111.5014,-300 1111.5014,-294 1117.5014,-288 1123.5014,-288 1123.5014,-288 1216.5014,-288 1216.5014,-288 1222.5014,-288 1228.5014,-294 1228.5014,-300 1228.5014,-300 1228.5014,-312 1228.5014,-312 1228.5014,-318 1222.5014,-324 1216.5014,-324"/>
<text text-anchor="middle" x="1170.0014" y="-309" font-family="sans" font-size="10.00" fill="#000000">leafcutter_bam2junc</text>
<text text-anchor="middle" x="1170.0014" y="-298" font-family="sans" font-size="10.00" fill="#000000">name: mix1_4</text>
</g>
<!-- 1&#45;&gt;15 -->
<g id="edge48" class="edge">
<title>1&#45;&gt;15</title>
<path fill="none" stroke="#c0c0c0" stroke-width="2" d="M995.2276,-367.9887C1024.5295,-357.5959 1071.2766,-341.0157 1109.0541,-327.6168"/>
<polygon fill="#c0c0c0" stroke="#c0c0c0" stroke-width="2" points="1110.6931,-330.7491 1118.9479,-324.1076 1108.3531,-324.1518 1110.6931,-330.7491"/>
</g>
<!-- 16 -->
<g id="node17" class="node">
<title>16</title>
<path fill="none" stroke="#56d87b" stroke-width="2" stroke-dasharray="5,2" d="M1621.5014,-324C1621.5014,-324 1528.5014,-324 1528.5014,-324 1522.5014,-324 1516.5014,-318 1516.5014,-312 1516.5014,-312 1516.5014,-300 1516.5014,-300 1516.5014,-294 1522.5014,-288 1528.5014,-288 1528.5014,-288 1621.5014,-288 1621.5014,-288 1627.5014,-288 1633.5014,-294 1633.5014,-300 1633.5014,-300 1633.5014,-312 1633.5014,-312 1633.5014,-318 1627.5014,-324 1621.5014,-324"/>
<text text-anchor="middle" x="1575.0014" y="-309" font-family="sans" font-size="10.00" fill="#000000">leafcutter_bam2junc</text>
<text text-anchor="middle" x="1575.0014" y="-298" font-family="sans" font-size="10.00" fill="#000000">name: mix2_4</text>
</g>
<!-- 1&#45;&gt;16 -->
<g id="edge49" class="edge">
<title>1&#45;&gt;16</title>
<path fill="none" stroke="#c0c0c0" stroke-width="2" d="M995.0996,-376.8118C1074.255,-373.1243 1305.8521,-359.9954 1506.1805,-324.1843"/>
<polygon fill="#c0c0c0" stroke="#c0c0c0" stroke-width="2" points="1507.0828,-327.5779 1516.2986,-322.3511 1505.8348,-320.69 1507.0828,-327.5779"/>
</g>
<!-- 17 -->
<g id="node18" class="node">
<title>17</title>
<path fill="none" stroke="#56d87b" stroke-width="2" stroke-dasharray="5,2" d="M1891.5014,-324C1891.5014,-324 1798.5014,-324 1798.5014,-324 1792.5014,-324 1786.5014,-318 1786.5014,-312 1786.5014,-312 1786.5014,-300 1786.5014,-300 1786.5014,-294 1792.5014,-288 1798.5014,-288 1798.5014,-288 1891.5014,-288 1891.5014,-288 1897.5014,-288 1903.5014,-294 1903.5014,-300 1903.5014,-300 1903.5014,-312 1903.5014,-312 1903.5014,-318 1897.5014,-324 1891.5014,-324"/>
<text text-anchor="middle" x="1845.0014" y="-309" font-family="sans" font-size="10.00" fill="#000000">leafcutter_bam2junc</text>
<text text-anchor="middle" x="1845.0014" y="-298" font-family="sans" font-size="10.00" fill="#000000">name: mix3_4</text>
</g>
<!-- 1&#45;&gt;17 -->
<g id="edge50" class="edge">
<title>1&#45;&gt;17</title>
<path fill="none" stroke="#c0c0c0" stroke-width="2" d="M995.3738,-376.8584C1117.9091,-371.8155 1602.9696,-350.668 1776.3341,-324.0596"/>
<polygon fill="#c0c0c0" stroke="#c0c0c0" stroke-width="2" points="1776.9963,-327.4983 1786.3181,-322.463 1775.8909,-320.5861 1776.9963,-327.4983"/>
</g>
<!-- 18 -->
<g id="node19" class="node">
<title>18</title>
<path fill="none" stroke="#56d87b" stroke-width="2" stroke-dasharray="5,2" d="M1351.5014,-324C1351.5014,-324 1258.5014,-324 1258.5014,-324 1252.5014,-324 1246.5014,-318 1246.5014,-312 1246.5014,-312 1246.5014,-300 1246.5014,-300 1246.5014,-294 1252.5014,-288 1258.5014,-288 1258.5014,-288 1351.5014,-288 1351.5014,-288 1357.5014,-288 1363.5014,-294 1363.5014,-300 1363.5014,-300 1363.5014,-312 1363.5014,-312 1363.5014,-318 1357.5014,-324 1351.5014,-324"/>
<text text-anchor="middle" x="1305.0014" y="-309" font-family="sans" font-size="10.00" fill="#000000">leafcutter_bam2junc</text>
<text text-anchor="middle" x="1305.0014" y="-298" font-family="sans" font-size="10.00" fill="#000000">name: mix1_5</text>
</g>
<!-- 1&#45;&gt;18 -->
<g id="edge51" class="edge">
<title>1&#45;&gt;18</title>
<path fill="none" stroke="#c0c0c0" stroke-width="2" d="M995.2219,-373.0091C1042.9453,-364.4331 1142.8102,-345.9024 1236.3282,-324.3255"/>
<polygon fill="#c0c0c0" stroke="#c0c0c0" stroke-width="2" points="1237.2827,-327.6971 1246.2304,-322.0236 1235.6976,-320.8789 1237.2827,-327.6971"/>
</g>
<!-- 19 -->
<g id="node20" class="node">
<title>19</title>
<path fill="none" stroke="#56d87b" stroke-width="2" stroke-dasharray="5,2" d="M1486.5014,-324C1486.5014,-324 1393.5014,-324 1393.5014,-324 1387.5014,-324 1381.5014,-318 1381.5014,-312 1381.5014,-312 1381.5014,-300 1381.5014,-300 1381.5014,-294 1387.5014,-288 1393.5014,-288 1393.5014,-288 1486.5014,-288 1486.5014,-288 1492.5014,-288 1498.5014,-294 1498.5014,-300 1498.5014,-300 1498.5014,-312 1498.5014,-312 1498.5014,-318 1492.5014,-324 1486.5014,-324"/>
<text text-anchor="middle" x="1440.0014" y="-309" font-family="sans" font-size="10.00" fill="#000000">leafcutter_bam2junc</text>
<text text-anchor="middle" x="1440.0014" y="-298" font-family="sans" font-size="10.00" fill="#000000">name: mix2_5</text>
</g>
<!-- 1&#45;&gt;19 -->
<g id="edge52" class="edge">
<title>1&#45;&gt;19</title>
<path fill="none" stroke="#c0c0c0" stroke-width="2" d="M995.266,-375.5195C1060.1547,-369.5535 1224.8796,-352.8649 1371.2205,-324.233"/>
<polygon fill="#c0c0c0" stroke="#c0c0c0" stroke-width="2" points="1372.1484,-327.6173 1381.2774,-322.2404 1370.7878,-320.7508 1372.1484,-327.6173"/>
</g>
<!-- 20 -->
<g id="node21" class="node">
<title>20</title>
<path fill="none" stroke="#56d87b" stroke-width="2" stroke-dasharray="5,2" d="M2026.5014,-324C2026.5014,-324 1933.5014,-324 1933.5014,-324 1927.5014,-324 1921.5014,-318 1921.5014,-312 1921.5014,-312 1921.5014,-300 1921.5014,-300 1921.5014,-294 1927.5014,-288 1933.5014,-288 1933.5014,-288 2026.5014,-288 2026.5014,-288 2032.5014,-288 2038.5014,-294 2038.5014,-300 2038.5014,-300 2038.5014,-312 2038.5014,-312 2038.5014,-318 2032.5014,-324 2026.5014,-324"/>
<text text-anchor="middle" x="1980.0014" y="-309" font-family="sans" font-size="10.00" fill="#000000">leafcutter_bam2junc</text>
<text text-anchor="middle" x="1980.0014" y="-298" font-family="sans" font-size="10.00" fill="#000000">name: mix3_5</text>
</g>
<!-- 1&#45;&gt;20 -->
<g id="edge53" class="edge">
<title>1&#45;&gt;20</title>
<path fill="none" stroke="#c0c0c0" stroke-width="2" d="M995.3696,-377.1672C1130.4356,-373.0842 1709.7913,-354.2093 1911.4378,-324.0331"/>
<polygon fill="#c0c0c0" stroke="#c0c0c0" stroke-width="2" points="1911.9803,-327.4909 1921.3234,-322.4952 1910.9042,-320.5741 1911.9803,-327.4909"/>
</g>
<!-- 2 -->
<g id="node3" class="node">
<title>2</title>
<path fill="none" stroke="#c6d856" stroke-width="2" stroke-dasharray="5,2" d="M1314.5014,-108C1314.5014,-108 1173.5014,-108 1173.5014,-108 1167.5014,-108 1161.5014,-102 1161.5014,-96 1161.5014,-96 1161.5014,-84 1161.5014,-84 1161.5014,-78 1167.5014,-72 1173.5014,-72 1173.5014,-72 1314.5014,-72 1314.5014,-72 1320.5014,-72 1326.5014,-78 1326.5014,-84 1326.5014,-84 1326.5014,-96 1326.5014,-96 1326.5014,-102 1320.5014,-108 1314.5014,-108"/>
<text text-anchor="middle" x="1244.0014" y="-87.5" font-family="sans" font-size="10.00" fill="#000000">leafcutter_differential_splicing</text>
</g>
<!-- 2&#45;&gt;0 -->
<g id="edge2" class="edge">
<title>2&#45;&gt;0</title>
<path fill="none" stroke="#c0c0c0" stroke-width="2" d="M1161.3596,-76.4151C1066.0946,-60.7551 913.6551,-35.6965 843.5268,-24.1686"/>
<polygon fill="#c0c0c0" stroke="#c0c0c0" stroke-width="2" points="843.8317,-20.6718 833.3963,-22.5033 842.6962,-27.5791 843.8317,-20.6718"/>
</g>
<!-- 3 -->
<g id="node4" class="node">
<title>3</title>
<path fill="none" stroke="#78d856" stroke-width="2" stroke-dasharray="5,2" d="M1040.5014,-180C1040.5014,-180 937.5014,-180 937.5014,-180 931.5014,-180 925.5014,-174 925.5014,-168 925.5014,-168 925.5014,-156 925.5014,-156 925.5014,-150 931.5014,-144 937.5014,-144 937.5014,-144 1040.5014,-144 1040.5014,-144 1046.5014,-144 1052.5014,-150 1052.5014,-156 1052.5014,-156 1052.5014,-168 1052.5014,-168 1052.5014,-174 1046.5014,-180 1040.5014,-180"/>
<text text-anchor="middle" x="989.0014" y="-159.5" font-family="sans" font-size="10.00" fill="#000000">leafcutter_gtf_to_exon</text>
</g>
<!-- 3&#45;&gt;2 -->
<g id="edge20" class="edge">
<title>3&#45;&gt;2</title>
<path fill="none" stroke="#c0c0c0" stroke-width="2" d="M1052.6908,-144.0171C1088.4409,-133.923 1133.209,-121.2825 1170.4488,-110.7678"/>
<polygon fill="#c0c0c0" stroke="#c0c0c0" stroke-width="2" points="1171.5674,-114.0889 1180.24,-108.0032 1169.6652,-107.3523 1171.5674,-114.0889"/>
</g>
<!-- 21 -->
<g id="node22" class="node">
<title>21</title>
<path fill="none" stroke="#c6d856" stroke-width="2" stroke-dasharray="5,2" d="M876.5014,-108C876.5014,-108 735.5014,-108 735.5014,-108 729.5014,-108 723.5014,-102 723.5014,-96 723.5014,-96 723.5014,-84 723.5014,-84 723.5014,-78 729.5014,-72 735.5014,-72 735.5014,-72 876.5014,-72 876.5014,-72 882.5014,-72 888.5014,-78 888.5014,-84 888.5014,-84 888.5014,-96 888.5014,-96 888.5014,-102 882.5014,-108 876.5014,-108"/>
<text text-anchor="middle" x="806.0014" y="-87.5" font-family="sans" font-size="10.00" fill="#000000">leafcutter_differential_splicing</text>
</g>
<!-- 3&#45;&gt;21 -->
<g id="edge54" class="edge">
<title>3&#45;&gt;21</title>
<path fill="none" stroke="#c0c0c0" stroke-width="2" d="M942.8227,-143.8314C918.0212,-134.0734 887.2764,-121.977 861.217,-111.7242"/>
<polygon fill="#c0c0c0" stroke="#c0c0c0" stroke-width="2" points="862.435,-108.4423 851.8479,-108.038 859.8721,-114.9563 862.435,-108.4423"/>
</g>
<!-- 24 -->
<g id="node25" class="node">
<title>24</title>
<path fill="none" stroke="#c6d856" stroke-width="2" stroke-dasharray="5,2" d="M1059.5014,-108C1059.5014,-108 918.5014,-108 918.5014,-108 912.5014,-108 906.5014,-102 906.5014,-96 906.5014,-96 906.5014,-84 906.5014,-84 906.5014,-78 912.5014,-72 918.5014,-72 918.5014,-72 1059.5014,-72 1059.5014,-72 1065.5014,-72 1071.5014,-78 1071.5014,-84 1071.5014,-84 1071.5014,-96 1071.5014,-96 1071.5014,-102 1065.5014,-108 1059.5014,-108"/>
<text text-anchor="middle" x="989.0014" y="-87.5" font-family="sans" font-size="10.00" fill="#000000">leafcutter_differential_splicing</text>
</g>
<!-- 3&#45;&gt;24 -->
<g id="edge73" class="edge">
<title>3&#45;&gt;24</title>
<path fill="none" stroke="#c0c0c0" stroke-width="2" d="M989.0014,-143.8314C989.0014,-136.131 989.0014,-126.9743 989.0014,-118.4166"/>
<polygon fill="#c0c0c0" stroke="#c0c0c0" stroke-width="2" points="992.5015,-118.4132 989.0014,-108.4133 985.5015,-118.4133 992.5015,-118.4132"/>
</g>
<!-- 4 -->
<g id="node5" class="node">
<title>4</title>
<path fill="none" stroke="#d85656" stroke-width="2" stroke-dasharray="5,2" d="M1378.5014,-180C1378.5014,-180 1251.5014,-180 1251.5014,-180 1245.5014,-180 1239.5014,-174 1239.5014,-168 1239.5014,-168 1239.5014,-156 1239.5014,-156 1239.5014,-150 1245.5014,-144 1251.5014,-144 1251.5014,-144 1378.5014,-144 1378.5014,-144 1384.5014,-144 1390.5014,-150 1390.5014,-156 1390.5014,-156 1390.5014,-168 1390.5014,-168 1390.5014,-174 1384.5014,-180 1378.5014,-180"/>
<text text-anchor="middle" x="1315.0014" y="-159.5" font-family="sans" font-size="10.00" fill="#000000">leafcutter_intron_clustering</text>
</g>
<!-- 4&#45;&gt;2 -->
<g id="edge21" class="edge">
<title>4&#45;&gt;2</title>
<path fill="none" stroke="#c0c0c0" stroke-width="2" d="M1297.0851,-143.8314C1288.6572,-135.2848 1278.4603,-124.9443 1269.2654,-115.6198"/>
<polygon fill="#c0c0c0" stroke="#c0c0c0" stroke-width="2" points="1271.6725,-113.0761 1262.1589,-108.4133 1266.6882,-117.9912 1271.6725,-113.0761"/>
</g>
<!-- 5 -->
<g id="node6" class="node">
<title>5</title>
<path fill="none" stroke="#56d8c9" stroke-width="2" stroke-dasharray="5,2" d="M1275.0014,-252C1275.0014,-252 1143.0014,-252 1143.0014,-252 1137.0014,-252 1131.0014,-246 1131.0014,-240 1131.0014,-240 1131.0014,-228 1131.0014,-228 1131.0014,-222 1137.0014,-216 1143.0014,-216 1143.0014,-216 1275.0014,-216 1275.0014,-216 1281.0014,-216 1287.0014,-222 1287.0014,-228 1287.0014,-228 1287.0014,-240 1287.0014,-240 1287.0014,-246 1281.0014,-252 1275.0014,-252"/>
<text text-anchor="middle" x="1209.0014" y="-237" font-family="sans" font-size="10.00" fill="#000000">leafcutter_concatenate</text>
<text text-anchor="middle" x="1209.0014" y="-226" font-family="sans" font-size="10.00" fill="#000000">comp_names: mix2&#45;vs&#45;mix1</text>
</g>
<!-- 5&#45;&gt;2 -->
<g id="edge22" class="edge">
<title>5&#45;&gt;2</title>
<path fill="none" stroke="#c0c0c0" stroke-width="2" d="M1287.0128,-221.6957C1333.4265,-212.6046 1385.9425,-198.5847 1400.0014,-180 1424.8406,-147.1645 1382.8532,-124.2964 1336.2143,-109.8292"/>
<polygon fill="#c0c0c0" stroke="#c0c0c0" stroke-width="2" points="1337.1114,-106.4447 1326.5291,-106.9583 1335.122,-113.156 1337.1114,-106.4447"/>
</g>
<!-- 5&#45;&gt;4 -->
<g id="edge23" class="edge">
<title>5&#45;&gt;4</title>
<path fill="none" stroke="#c0c0c0" stroke-width="2" d="M1235.7496,-215.8314C1249.0566,-206.7927 1265.3174,-195.7476 1279.6389,-186.0198"/>
<polygon fill="#c0c0c0" stroke="#c0c0c0" stroke-width="2" points="1281.9561,-188.677 1288.2616,-180.1628 1278.0229,-182.8864 1281.9561,-188.677"/>
</g>
<!-- 6&#45;&gt;0 -->
<g id="edge5" class="edge">
<title>6&#45;&gt;0</title>
<path fill="none" stroke="#c0c0c0" stroke-width="2" d="M492.6678,-287.7191C488.1728,-243.7899 483.4785,-131.534 543.0014,-72 574.2982,-40.6973 703.9166,-26.1191 768.7404,-20.6791"/>
<polygon fill="#c0c0c0" stroke="#c0c0c0" stroke-width="2" points="769.2509,-24.1493 778.936,-19.8542 768.6863,-17.1721 769.2509,-24.1493"/>
</g>
<!-- 6&#45;&gt;5 -->
<g id="edge24" class="edge">
<title>6&#45;&gt;5</title>
<path fill="none" stroke="#c0c0c0" stroke-width="2" d="M553.822,-289.6809C556.9148,-289.0579 559.9881,-288.491 563.0014,-288 805.4797,-248.4854 873.4934,-284.3303 1120.8256,-252.0403"/>
<polygon fill="#c0c0c0" stroke="#c0c0c0" stroke-width="2" points="1121.3839,-255.497 1130.8353,-250.7093 1120.4612,-248.5581 1121.3839,-255.497"/>
</g>
<!-- 23 -->
<g id="node24" class="node">
<title>23</title>
<path fill="none" stroke="#56d8c9" stroke-width="2" stroke-dasharray="5,2" d="M927.0014,-252C927.0014,-252 795.0014,-252 795.0014,-252 789.0014,-252 783.0014,-246 783.0014,-240 783.0014,-240 783.0014,-228 783.0014,-228 783.0014,-222 789.0014,-216 795.0014,-216 795.0014,-216 927.0014,-216 927.0014,-216 933.0014,-216 939.0014,-222 939.0014,-228 939.0014,-228 939.0014,-240 939.0014,-240 939.0014,-246 933.0014,-252 927.0014,-252"/>
<text text-anchor="middle" x="861.0014" y="-237" font-family="sans" font-size="10.00" fill="#000000">leafcutter_concatenate</text>
<text text-anchor="middle" x="861.0014" y="-226" font-family="sans" font-size="10.00" fill="#000000">comp_names: mix3&#45;vs&#45;mix1</text>
</g>
<!-- 6&#45;&gt;23 -->
<g id="edge58" class="edge">
<title>6&#45;&gt;23</title>
<path fill="none" stroke="#c0c0c0" stroke-width="2" d="M553.5344,-290.1899C556.7309,-289.4253 559.9021,-288.6899 563.0014,-288 633.1069,-272.3954 713.2423,-258.0691 772.7441,-248.0997"/>
<polygon fill="#c0c0c0" stroke="#c0c0c0" stroke-width="2" points="773.5693,-251.5105 782.8577,-246.4138 772.4183,-244.6058 773.5693,-251.5105"/>
</g>
<!-- 26 -->
<g id="node27" class="node">
<title>26</title>
<path fill="none" stroke="#56d8c9" stroke-width="2" stroke-dasharray="5,2" d="M1101.0014,-252C1101.0014,-252 969.0014,-252 969.0014,-252 963.0014,-252 957.0014,-246 957.0014,-240 957.0014,-240 957.0014,-228 957.0014,-228 957.0014,-222 963.0014,-216 969.0014,-216 969.0014,-216 1101.0014,-216 1101.0014,-216 1107.0014,-216 1113.0014,-222 1113.0014,-228 1113.0014,-228 1113.0014,-240 1113.0014,-240 1113.0014,-246 1107.0014,-252 1101.0014,-252"/>
<text text-anchor="middle" x="1035.0014" y="-237" font-family="sans" font-size="10.00" fill="#000000">leafcutter_concatenate</text>
<text text-anchor="middle" x="1035.0014" y="-226" font-family="sans" font-size="10.00" fill="#000000">comp_names: mix3&#45;vs&#45;mix2</text>
</g>
<!-- 6&#45;&gt;26 -->
<g id="edge77" class="edge">
<title>6&#45;&gt;26</title>
<path fill="none" stroke="#c0c0c0" stroke-width="2" d="M553.8402,-289.7872C556.9282,-289.1364 559.9955,-288.5346 563.0014,-288 728.9818,-258.4815 776.2481,-276.7225 946.7492,-252.0854"/>
<polygon fill="#c0c0c0" stroke="#c0c0c0" stroke-width="2" points="947.4371,-255.5219 956.82,-250.6015 946.4165,-248.5967 947.4371,-255.5219"/>
</g>
<!-- 7&#45;&gt;0 -->
<g id="edge6" class="edge">
<title>7&#45;&gt;0</title>
<path fill="none" stroke="#c0c0c0" stroke-width="2" d="M107.6567,-287.7856C152.7996,-242.4824 278.0687,-124.5939 408.0014,-72 473.2293,-45.5971 682.9952,-27.2611 768.8454,-20.6836"/>
<polygon fill="#c0c0c0" stroke="#c0c0c0" stroke-width="2" points="769.2136,-24.1659 778.9215,-19.9222 768.6861,-17.1858 769.2136,-24.1659"/>
</g>
<!-- 7&#45;&gt;5 -->
<g id="edge25" class="edge">
<title>7&#45;&gt;5</title>
<path fill="none" stroke="#c0c0c0" stroke-width="2" d="M148.6689,-289.4377C151.4744,-288.8982 154.2622,-288.4136 157.0014,-288 578.0619,-224.4172 694.1254,-302.4201 1120.7133,-252.0248"/>
<polygon fill="#c0c0c0" stroke="#c0c0c0" stroke-width="2" points="1121.3358,-255.4753 1130.8483,-250.8103 1120.5028,-248.5251 1121.3358,-255.4753"/>
</g>
<!-- 7&#45;&gt;23 -->
<g id="edge59" class="edge">
<title>7&#45;&gt;23</title>
<path fill="none" stroke="#c0c0c0" stroke-width="2" d="M148.6904,-289.5711C151.4902,-288.996 154.2709,-288.4673 157.0014,-288 376.3231,-250.4632 638.5712,-239.0087 772.6008,-235.5209"/>
<polygon fill="#c0c0c0" stroke="#c0c0c0" stroke-width="2" points="772.9032,-239.0145 782.812,-235.2642 772.7272,-232.0167 772.9032,-239.0145"/>
</g>
<!-- 7&#45;&gt;26 -->
<g id="edge78" class="edge">
<title>7&#45;&gt;26</title>
<path fill="none" stroke="#c0c0c0" stroke-width="2" d="M148.6731,-289.4656C151.4775,-288.9186 154.2639,-288.4248 157.0014,-288 501.4465,-234.5427 597.0025,-294.6223 946.689,-252.0365"/>
<polygon fill="#c0c0c0" stroke="#c0c0c0" stroke-width="2" points="947.3501,-255.4815 956.8445,-250.7797 946.4903,-248.5345 947.3501,-255.4815"/>
</g>
<!-- 8&#45;&gt;0 -->
<g id="edge7" class="edge">
<title>8&#45;&gt;0</title>
<path fill="none" stroke="#c0c0c0" stroke-width="2" d="M604.6269,-287.8921C593.2447,-278.4601 580.6789,-265.9793 573.0014,-252 534.49,-181.8781 516.8106,-129.9153 572.0014,-72 598.7279,-43.9541 709.9674,-28.17 768.9317,-21.6249"/>
<polygon fill="#c0c0c0" stroke="#c0c0c0" stroke-width="2" points="769.3898,-25.0959 778.9576,-20.5453 768.6403,-18.1362 769.3898,-25.0959"/>
</g>
<!-- 8&#45;&gt;5 -->
<g id="edge26" class="edge">
<title>8&#45;&gt;5</title>
<path fill="none" stroke="#c0c0c0" stroke-width="2" d="M688.8347,-289.7559C691.9241,-289.1132 694.9932,-288.5217 698.0014,-288 881.1572,-256.2325 933.0802,-278.4192 1120.903,-252.0531"/>
<polygon fill="#c0c0c0" stroke="#c0c0c0" stroke-width="2" points="1121.4214,-255.5147 1130.8247,-250.6333 1120.4297,-248.5853 1121.4214,-255.5147"/>
</g>
<!-- 8&#45;&gt;23 -->
<g id="edge60" class="edge">
<title>8&#45;&gt;23</title>
<path fill="none" stroke="#c0c0c0" stroke-width="2" d="M687.9943,-287.9243C719.9852,-277.9531 759.8785,-265.5188 793.2927,-255.104"/>
<polygon fill="#c0c0c0" stroke="#c0c0c0" stroke-width="2" points="794.4791,-258.4004 802.9846,-252.0831 792.3961,-251.7174 794.4791,-258.4004"/>
</g>
<!-- 8&#45;&gt;26 -->
<g id="edge79" class="edge">
<title>8&#45;&gt;26</title>
<path fill="none" stroke="#c0c0c0" stroke-width="2" d="M688.5054,-290.0536C691.7093,-289.3241 694.8901,-288.6336 698.0014,-288 804.8857,-266.234 835.6984,-271.0761 946.8615,-252.1344"/>
<polygon fill="#c0c0c0" stroke="#c0c0c0" stroke-width="2" points="947.5332,-255.5703 956.7899,-250.4163 946.3395,-248.6728 947.5332,-255.5703"/>
</g>
<!-- 9&#45;&gt;0 -->
<g id="edge8" class="edge">
<title>9&#45;&gt;0</title>
<path fill="none" stroke="#c0c0c0" stroke-width="2" d="M841.242,-289.926C838.461,-289.2559 835.7036,-288.6101 833.0014,-288 789.8045,-278.2471 665.3458,-286.0247 637.0014,-252 585.7967,-190.5339 589.8206,-136.6063 637.0014,-72 652.6745,-50.5382 724.0041,-33.4743 768.8378,-24.6307"/>
<polygon fill="#c0c0c0" stroke="#c0c0c0" stroke-width="2" points="769.6348,-28.0416 778.7936,-22.7155 768.3124,-21.1676 769.6348,-28.0416"/>
</g>
<!-- 9&#45;&gt;5 -->
<g id="edge27" class="edge">
<title>9&#45;&gt;5</title>
<path fill="none" stroke="#c0c0c0" stroke-width="2" d="M958.5704,-290.344C961.7576,-289.5396 964.9169,-288.7535 968.0014,-288 1018.5455,-275.6525 1075.3218,-262.8777 1121.0656,-252.855"/>
<polygon fill="#c0c0c0" stroke="#c0c0c0" stroke-width="2" points="1121.9281,-256.2492 1130.95,-250.6944 1120.4332,-249.4107 1121.9281,-256.2492"/>
</g>
<!-- 9&#45;&gt;23 -->
<g id="edge61" class="edge">
<title>9&#45;&gt;23</title>
<path fill="none" stroke="#c0c0c0" stroke-width="2" d="M890.16,-287.8314C885.8056,-279.7925 880.5916,-270.1666 875.7844,-261.2918"/>
<polygon fill="#c0c0c0" stroke="#c0c0c0" stroke-width="2" points="878.8156,-259.5392 870.9752,-252.4133 872.6606,-262.8732 878.8156,-259.5392"/>
</g>
<!-- 9&#45;&gt;26 -->
<g id="edge80" class="edge">
<title>9&#45;&gt;26</title>
<path fill="none" stroke="#c0c0c0" stroke-width="2" d="M934.0676,-287.8314C951.6547,-278.4516 973.2929,-266.9112 992.0182,-256.9244"/>
<polygon fill="#c0c0c0" stroke="#c0c0c0" stroke-width="2" points="993.7696,-259.957 1000.9461,-252.1628 990.4754,-253.7805 993.7696,-259.957"/>
</g>
<!-- 10&#45;&gt;0 -->
<g id="edge9" class="edge">
<title>10&#45;&gt;0</title>
<path fill="none" stroke="#c0c0c0" stroke-width="2" d="M366.2492,-287.7473C382.6249,-242.8755 431.3308,-126.8511 514.0014,-72 555.373,-44.5504 699.7885,-27.8374 768.769,-21.2439"/>
<polygon fill="#c0c0c0" stroke="#c0c0c0" stroke-width="2" points="769.1412,-24.7244 778.7718,-20.3083 768.4893,-17.7548 769.1412,-24.7244"/>
</g>
<!-- 10&#45;&gt;5 -->
<g id="edge28" class="edge">
<title>10&#45;&gt;5</title>
<path fill="none" stroke="#c0c0c0" stroke-width="2" d="M418.6765,-289.4869C421.48,-288.9343 424.2653,-288.4334 427.0014,-288 729.2134,-240.1262 813.4211,-290.3453 1120.7503,-252.0358"/>
<polygon fill="#c0c0c0" stroke="#c0c0c0" stroke-width="2" points="1121.3612,-255.4865 1130.8415,-250.7563 1120.4806,-248.5421 1121.3612,-255.4865"/>
</g>
<!-- 10&#45;&gt;23 -->
<g id="edge62" class="edge">
<title>10&#45;&gt;23</title>
<path fill="none" stroke="#c0c0c0" stroke-width="2" d="M418.7197,-289.7311C421.5116,-289.1131 424.2827,-288.5317 427.0014,-288 545.6295,-264.801 684.5503,-249.5727 772.6502,-241.373"/>
<polygon fill="#c0c0c0" stroke="#c0c0c0" stroke-width="2" points="773.2344,-244.8342 782.8714,-240.4321 772.5926,-237.8636 773.2344,-244.8342"/>
</g>
<!-- 10&#45;&gt;26 -->
<g id="edge81" class="edge">
<title>10&#45;&gt;26</title>
<path fill="none" stroke="#c0c0c0" stroke-width="2" d="M418.686,-289.5455C421.487,-288.9772 424.2691,-288.457 427.0014,-288 652.6873,-250.2523 716.26,-282.6402 946.7948,-252.0494"/>
<polygon fill="#c0c0c0" stroke="#c0c0c0" stroke-width="2" points="947.3923,-255.5006 956.833,-250.6919 946.4541,-248.5637 947.3923,-255.5006"/>
</g>
<!-- 11&#45;&gt;0 -->
<g id="edge10" class="edge">
<title>11&#45;&gt;0</title>
<path fill="none" stroke="#c0c0c0" stroke-width="2" d="M237.5335,-287.8881C269.8099,-242.822 360.8124,-125.4379 468.0014,-72 520.3817,-45.8863 692.2772,-27.9874 768.7469,-21.1228"/>
<polygon fill="#c0c0c0" stroke="#c0c0c0" stroke-width="2" points="769.2281,-24.594 778.8814,-20.2277 768.6122,-17.6211 769.2281,-24.594"/>
</g>
<!-- 11&#45;&gt;5 -->
<g id="edge29" class="edge">
<title>11&#45;&gt;5</title>
<path fill="none" stroke="#c0c0c0" stroke-width="2" d="M283.672,-289.4583C286.4767,-288.9133 289.2635,-288.4219 292.0014,-288 653.6328,-232.2705 753.7821,-296.3729 1120.7434,-252.0276"/>
<polygon fill="#c0c0c0" stroke="#c0c0c0" stroke-width="2" points="1121.3464,-255.4799 1130.8455,-250.7877 1120.4936,-248.5321 1121.3464,-255.4799"/>
</g>
<!-- 11&#45;&gt;23 -->
<g id="edge63" class="edge">
<title>11&#45;&gt;23</title>
<path fill="none" stroke="#c0c0c0" stroke-width="2" d="M283.7011,-289.6324C286.4981,-289.0408 289.2752,-288.492 292.0014,-288 460.3218,-257.6247 659.9352,-243.6726 772.3927,-237.7985"/>
<polygon fill="#c0c0c0" stroke="#c0c0c0" stroke-width="2" points="772.8589,-241.2793 782.6665,-237.2717 772.5004,-234.2885 772.8589,-241.2793"/>
</g>
<!-- 11&#45;&gt;26 -->
<g id="edge82" class="edge">
<title>11&#45;&gt;26</title>
<path fill="none" stroke="#c0c0c0" stroke-width="2" d="M283.6781,-289.4974C286.4812,-288.9419 289.2659,-288.4376 292.0014,-288 577.0909,-242.3898 656.6679,-288.6226 946.8696,-252.0242"/>
<polygon fill="#c0c0c0" stroke="#c0c0c0" stroke-width="2" points="947.3668,-255.4891 956.84,-250.7448 946.4759,-248.5461 947.3668,-255.4891"/>
</g>
<!-- 12&#45;&gt;0 -->
<g id="edge11" class="edge">
<title>12&#45;&gt;0</title>
<path fill="none" stroke="#c0c0c0" stroke-width="2" d="M706.2879,-288.6733C659.8919,-274.7032 602.374,-256.6437 599.0014,-252 551.9897,-187.2705 550.0907,-135.3068 599.0014,-72 619.5972,-45.342 714.9468,-29.3492 768.7644,-22.2925"/>
<polygon fill="#c0c0c0" stroke="#c0c0c0" stroke-width="2" points="769.4606,-25.7322 778.9397,-20.9997 768.5783,-18.788 769.4606,-25.7322"/>
</g>
<!-- 12&#45;&gt;5 -->
<g id="edge30" class="edge">
<title>12&#45;&gt;5</title>
<path fill="none" stroke="#c0c0c0" stroke-width="2" d="M823.8611,-289.8998C826.9436,-289.2195 830.004,-288.5806 833.0014,-288 956.8496,-264.0081 992.5026,-272.6565 1120.599,-252.1504"/>
<polygon fill="#c0c0c0" stroke="#c0c0c0" stroke-width="2" points="1121.4954,-255.5505 1130.802,-250.4872 1120.3691,-248.6417 1121.4954,-255.5505"/>
</g>
<!-- 12&#45;&gt;23 -->
<g id="edge64" class="edge">
<title>12&#45;&gt;23</title>
<path fill="none" stroke="#c0c0c0" stroke-width="2" d="M789.2262,-287.8314C801.1641,-278.8779 815.7269,-267.9558 828.6074,-258.2955"/>
<polygon fill="#c0c0c0" stroke="#c0c0c0" stroke-width="2" points="830.8843,-260.9629 836.7843,-252.1628 826.6842,-255.3629 830.8843,-260.9629"/>
</g>
<!-- 12&#45;&gt;26 -->
<g id="edge83" class="edge">
<title>12&#45;&gt;26</title>
<path fill="none" stroke="#c0c0c0" stroke-width="2" d="M823.5873,-290.3771C862.8687,-279.902 915.0203,-265.995 957.6968,-254.6145"/>
<polygon fill="#c0c0c0" stroke="#c0c0c0" stroke-width="2" points="958.7261,-257.9624 967.4867,-252.0039 956.9225,-251.1988 958.7261,-257.9624"/>
</g>
<!-- 13&#45;&gt;0 -->
<g id="edge12" class="edge">
<title>13&#45;&gt;0</title>
<path fill="none" stroke="#c0c0c0" stroke-width="2" d="M976.2406,-289.9321C973.46,-289.2604 970.703,-288.6126 968.0014,-288 831.022,-256.9413 735.9062,-304.5607 671.0014,-180 647.0504,-134.0351 678.1142,-108.411 715.0014,-72 730.811,-56.3945 751.9887,-43.4833 769.936,-34.2029"/>
<polygon fill="#c0c0c0" stroke="#c0c0c0" stroke-width="2" points="771.5985,-37.2849 778.9812,-29.6858 768.471,-31.0224 771.5985,-37.2849"/>
</g>
<!-- 13&#45;&gt;5 -->
<g id="edge31" class="edge">
<title>13&#45;&gt;5</title>
<path fill="none" stroke="#c0c0c0" stroke-width="2" d="M1078.9089,-287.8314C1102.2838,-278.159 1131.2111,-266.1891 1155.8481,-255.9944"/>
<polygon fill="#c0c0c0" stroke="#c0c0c0" stroke-width="2" points="1157.5076,-259.0956 1165.4096,-252.038 1154.8311,-252.6275 1157.5076,-259.0956"/>
</g>
<!-- 13&#45;&gt;23 -->
<g id="edge65" class="edge">
<title>13&#45;&gt;23</title>
<path fill="none" stroke="#c0c0c0" stroke-width="2" d="M991.0938,-287.8314C967.7189,-278.159 938.7917,-266.1891 914.1546,-255.9944"/>
<polygon fill="#c0c0c0" stroke="#c0c0c0" stroke-width="2" points="915.1716,-252.6275 904.5932,-252.038 912.4951,-259.0956 915.1716,-252.6275"/>
</g>
<!-- 13&#45;&gt;26 -->
<g id="edge84" class="edge">
<title>13&#45;&gt;26</title>
<path fill="none" stroke="#c0c0c0" stroke-width="2" d="M1035.0014,-287.8314C1035.0014,-280.131 1035.0014,-270.9743 1035.0014,-262.4166"/>
<polygon fill="#c0c0c0" stroke="#c0c0c0" stroke-width="2" points="1038.5015,-262.4132 1035.0014,-252.4133 1031.5015,-262.4133 1038.5015,-262.4132"/>
</g>
<!-- 14&#45;&gt;0 -->
<g id="edge13" class="edge">
<title>14&#45;&gt;0</title>
<path fill="none" stroke="#c0c0c0" stroke-width="2" d="M1698.6402,-287.7224C1668.8998,-241.7401 1583.6356,-121.4118 1477.0014,-72 1419.379,-45.2992 975.8638,-25.0102 843.3024,-19.4942"/>
<polygon fill="#c0c0c0" stroke="#c0c0c0" stroke-width="2" points="843.3664,-15.9939 833.2306,-19.0787 843.0778,-22.988 843.3664,-15.9939"/>
</g>
<!-- 14&#45;&gt;5 -->
<g id="edge32" class="edge">
<title>14&#45;&gt;5</title>
<path fill="none" stroke="#c0c0c0" stroke-width="2" d="M1651.2831,-289.7311C1648.4911,-289.1131 1645.7201,-288.5317 1643.0014,-288 1524.3732,-264.801 1385.4525,-249.5727 1297.3525,-241.373"/>
<polygon fill="#c0c0c0" stroke="#c0c0c0" stroke-width="2" points="1297.4101,-237.8636 1287.1313,-240.4321 1296.7683,-244.8342 1297.4101,-237.8636"/>
</g>
<!-- 14&#45;&gt;23 -->
<g id="edge66" class="edge">
<title>14&#45;&gt;23</title>
<path fill="none" stroke="#c0c0c0" stroke-width="2" d="M1651.3263,-289.4869C1648.5227,-288.9343 1645.7375,-288.4334 1643.0014,-288 1340.7893,-240.1262 1256.5816,-290.3453 949.2524,-252.0358"/>
<polygon fill="#c0c0c0" stroke="#c0c0c0" stroke-width="2" points="949.5221,-248.5421 939.1612,-250.7563 948.6415,-255.4865 949.5221,-248.5421"/>
</g>
<!-- 14&#45;&gt;26 -->
<g id="edge85" class="edge">
<title>14&#45;&gt;26</title>
<path fill="none" stroke="#c0c0c0" stroke-width="2" d="M1651.3167,-289.5455C1648.5157,-288.9772 1645.7336,-288.457 1643.0014,-288 1417.3154,-250.2523 1353.7428,-282.6402 1123.208,-252.0494"/>
<polygon fill="#c0c0c0" stroke="#c0c0c0" stroke-width="2" points="1123.5487,-248.5637 1113.1698,-250.6919 1122.6105,-255.5006 1123.5487,-248.5637"/>
</g>
<!-- 15&#45;&gt;0 -->
<g id="edge14" class="edge">
<title>15&#45;&gt;0</title>
<path fill="none" stroke="#c0c0c0" stroke-width="2" d="M1220.0334,-287.9891C1285.928,-263.0908 1395.9432,-217.0348 1417.0014,-180 1424.91,-166.0912 1423.5559,-158.5958 1417.0014,-144 1397.2697,-100.0607 1380.0969,-91.3801 1336.0014,-72 1247.2836,-33.0084 948.681,-21.6685 843.2488,-18.8371"/>
<polygon fill="#c0c0c0" stroke="#c0c0c0" stroke-width="2" points="843.173,-15.3341 833.086,-18.5747 842.9923,-22.3318 843.173,-15.3341"/>
</g>
<!-- 15&#45;&gt;5 -->
<g id="edge33" class="edge">
<title>15&#45;&gt;5</title>
<path fill="none" stroke="#c0c0c0" stroke-width="2" d="M1179.8427,-287.8314C1184.1971,-279.7925 1189.4111,-270.1666 1194.2183,-261.2918"/>
<polygon fill="#c0c0c0" stroke="#c0c0c0" stroke-width="2" points="1197.3422,-262.8732 1199.0275,-252.4133 1191.1871,-259.5392 1197.3422,-262.8732"/>
</g>
<!-- 15&#45;&gt;23 -->
<g id="edge67" class="edge">
<title>15&#45;&gt;23</title>
<path fill="none" stroke="#c0c0c0" stroke-width="2" d="M1111.2121,-290.0529C1108.4391,-289.3489 1105.6915,-288.6612 1103.0014,-288 1052.1776,-275.5086 995.0456,-262.7024 949.0604,-252.6979"/>
<polygon fill="#c0c0c0" stroke="#c0c0c0" stroke-width="2" points="949.6396,-249.2422 939.1248,-250.5421 948.1552,-256.083 949.6396,-249.2422"/>
</g>
<!-- 15&#45;&gt;26 -->
<g id="edge86" class="edge">
<title>15&#45;&gt;26</title>
<path fill="none" stroke="#c0c0c0" stroke-width="2" d="M1135.9352,-287.8314C1118.3481,-278.4516 1096.7098,-266.9112 1077.9845,-256.9244"/>
<polygon fill="#c0c0c0" stroke="#c0c0c0" stroke-width="2" points="1079.5273,-253.7805 1069.0567,-252.1628 1076.2331,-259.957 1079.5273,-253.7805"/>
</g>
<!-- 16&#45;&gt;0 -->
<g id="edge15" class="edge">
<title>16&#45;&gt;0</title>
<path fill="none" stroke="#c0c0c0" stroke-width="2" d="M1571.0278,-287.9949C1559.9712,-242.652 1524.2297,-123.7002 1444.0014,-72 1393.4471,-39.4221 972.415,-23.3337 843.4196,-19.1373"/>
<polygon fill="#c0c0c0" stroke="#c0c0c0" stroke-width="2" points="843.3545,-15.6335 833.2476,-18.8114 843.1304,-22.6299 843.3545,-15.6335"/>
</g>
<!-- 16&#45;&gt;5 -->
<g id="edge34" class="edge">
<title>16&#45;&gt;5</title>
<path fill="none" stroke="#c0c0c0" stroke-width="2" d="M1516.2443,-289.916C1513.4627,-289.2485 1510.7045,-288.6061 1508.0014,-288 1437.5708,-272.2084 1357.0077,-257.8705 1297.2659,-247.944"/>
<polygon fill="#c0c0c0" stroke="#c0c0c0" stroke-width="2" points="1297.5494,-244.4434 1287.1125,-246.266 1296.408,-251.3498 1297.5494,-244.4434"/>
</g>
<!-- 16&#45;&gt;23 -->
<g id="edge68" class="edge">
<title>16&#45;&gt;23</title>
<path fill="none" stroke="#c0c0c0" stroke-width="2" d="M1516.3194,-289.5292C1513.5177,-288.9652 1510.7347,-288.4504 1508.0014,-288 1265.1622,-247.981 1196.9559,-284.361 949.1944,-252.0422"/>
<polygon fill="#c0c0c0" stroke="#c0c0c0" stroke-width="2" points="949.5413,-248.5576 939.1673,-250.7098 948.6191,-255.4966 949.5413,-248.5576"/>
</g>
<!-- 16&#45;&gt;26 -->
<g id="edge87" class="edge">
<title>16&#45;&gt;26</title>
<path fill="none" stroke="#c0c0c0" stroke-width="2" d="M1516.3026,-289.6269C1513.5054,-289.0368 1510.7279,-288.4898 1508.0014,-288 1341.6448,-258.1186 1294.2021,-276.752 1123.2782,-252.0883"/>
<polygon fill="#c0c0c0" stroke="#c0c0c0" stroke-width="2" points="1123.5857,-248.596 1113.1826,-250.6024 1122.5663,-255.5213 1123.5857,-248.596"/>
</g>
<!-- 17&#45;&gt;0 -->
<g id="edge16" class="edge">
<title>17&#45;&gt;0</title>
<path fill="none" stroke="#c0c0c0" stroke-width="2" d="M1827.72,-287.9907C1782.3827,-242.1016 1654.2292,-120.9597 1520.0014,-72 1456.1906,-48.725 980.9263,-25.8327 843.2624,-19.634"/>
<polygon fill="#c0c0c0" stroke="#c0c0c0" stroke-width="2" points="843.3502,-16.1345 833.2037,-19.1838 843.0372,-23.1275 843.3502,-16.1345"/>
</g>
<!-- 17&#45;&gt;5 -->
<g id="edge35" class="edge">
<title>17&#45;&gt;5</title>
<path fill="none" stroke="#c0c0c0" stroke-width="2" d="M1786.3016,-289.6324C1783.5047,-289.0408 1780.7275,-288.492 1778.0014,-288 1609.681,-257.6247 1410.0675,-243.6726 1297.6101,-237.7985"/>
<polygon fill="#c0c0c0" stroke="#c0c0c0" stroke-width="2" points="1297.5024,-234.2885 1287.3362,-237.2717 1297.1438,-241.2793 1297.5024,-234.2885"/>
</g>
<!-- 17&#45;&gt;23 -->
<g id="edge69" class="edge">
<title>17&#45;&gt;23</title>
<path fill="none" stroke="#c0c0c0" stroke-width="2" d="M1786.3307,-289.4583C1783.526,-288.9133 1780.7393,-288.4219 1778.0014,-288 1416.37,-232.2705 1316.2206,-296.3729 949.2593,-252.0276"/>
<polygon fill="#c0c0c0" stroke="#c0c0c0" stroke-width="2" points="949.5092,-248.5321 939.1572,-250.7877 948.6564,-255.4799 949.5092,-248.5321"/>
</g>
<!-- 17&#45;&gt;26 -->
<g id="edge88" class="edge">
<title>17&#45;&gt;26</title>
<path fill="none" stroke="#c0c0c0" stroke-width="2" d="M1786.3246,-289.4974C1783.5215,-288.9419 1780.7368,-288.4376 1778.0014,-288 1492.9118,-242.3898 1413.3348,-288.6226 1123.1332,-252.0242"/>
<polygon fill="#c0c0c0" stroke="#c0c0c0" stroke-width="2" points="1123.5269,-248.5461 1113.1627,-250.7448 1122.6359,-255.4891 1123.5269,-248.5461"/>
</g>
<!-- 18&#45;&gt;0 -->
<g id="edge17" class="edge">
<title>18&#45;&gt;0</title>
<path fill="none" stroke="#c0c0c0" stroke-width="2" d="M1333.924,-287.9335C1365.1207,-266.5495 1413.0045,-227.7442 1433.0014,-180 1453.7333,-130.5007 1425.8213,-98.2278 1379.0014,-72 1332.3546,-45.8692 963.1526,-25.6851 843.3769,-19.7706"/>
<polygon fill="#c0c0c0" stroke="#c0c0c0" stroke-width="2" points="843.3884,-16.267 833.2293,-19.2743 843.0464,-23.2587 843.3884,-16.267"/>
</g>
<!-- 18&#45;&gt;5 -->
<g id="edge36" class="edge">
<title>18&#45;&gt;5</title>
<path fill="none" stroke="#c0c0c0" stroke-width="2" d="M1280.7765,-287.8314C1268.8386,-278.8779 1254.2758,-267.9558 1241.3953,-258.2955"/>
<polygon fill="#c0c0c0" stroke="#c0c0c0" stroke-width="2" points="1243.3185,-255.3629 1233.2185,-252.1628 1239.1185,-260.9629 1243.3185,-255.3629"/>
</g>
<!-- 18&#45;&gt;23 -->
<g id="edge70" class="edge">
<title>18&#45;&gt;23</title>
<path fill="none" stroke="#c0c0c0" stroke-width="2" d="M1246.2832,-289.7301C1243.4912,-289.1124 1240.7202,-288.5313 1238.0014,-288 1113.7706,-263.7235 1077.9484,-272.6847 949.4364,-252.1545"/>
<polygon fill="#c0c0c0" stroke="#c0c0c0" stroke-width="2" points="949.6329,-248.6405 939.2005,-250.4888 948.5085,-255.5496 949.6329,-248.6405"/>
</g>
<!-- 18&#45;&gt;26 -->
<g id="edge89" class="edge">
<title>18&#45;&gt;26</title>
<path fill="none" stroke="#c0c0c0" stroke-width="2" d="M1246.1775,-290.1878C1243.4138,-289.4476 1240.6776,-288.7154 1238.0014,-288 1196.7661,-276.9765 1150.8038,-264.7454 1113.0559,-254.7151"/>
<polygon fill="#c0c0c0" stroke="#c0c0c0" stroke-width="2" points="1113.7057,-251.2664 1103.1423,-252.0812 1111.9083,-258.0317 1113.7057,-251.2664"/>
</g>
<!-- 19&#45;&gt;0 -->
<g id="edge18" class="edge">
<title>19&#45;&gt;0</title>
<path fill="none" stroke="#c0c0c0" stroke-width="2" d="M1445.5375,-287.8368C1458.3865,-241.5814 1484.1355,-119.641 1415.0014,-72 1367.9205,-39.5561 968.6631,-23.472 843.422,-19.1923"/>
<polygon fill="#c0c0c0" stroke="#c0c0c0" stroke-width="2" points="843.2971,-15.6863 833.1851,-18.8481 843.0618,-22.6823 843.2971,-15.6863"/>
</g>
<!-- 19&#45;&gt;5 -->
<g id="edge37" class="edge">
<title>19&#45;&gt;5</title>
<path fill="none" stroke="#c0c0c0" stroke-width="2" d="M1382.0085,-287.9243C1350.0175,-277.9531 1310.1242,-265.5188 1276.7101,-255.104"/>
<polygon fill="#c0c0c0" stroke="#c0c0c0" stroke-width="2" points="1277.6066,-251.7174 1267.0181,-252.0831 1275.5236,-258.4004 1277.6066,-251.7174"/>
</g>
<!-- 19&#45;&gt;23 -->
<g id="edge71" class="edge">
<title>19&#45;&gt;23</title>
<path fill="none" stroke="#c0c0c0" stroke-width="2" d="M1381.3077,-289.5981C1378.5091,-289.0157 1375.73,-288.4782 1373.0014,-288 1189.4725,-255.8378 1137.3697,-278.4493 949.122,-252.0557"/>
<polygon fill="#c0c0c0" stroke="#c0c0c0" stroke-width="2" points="949.5727,-248.5846 939.178,-250.634 948.5819,-255.5142 949.5727,-248.5846"/>
</g>
<!-- 19&#45;&gt;26 -->
<g id="edge90" class="edge">
<title>19&#45;&gt;26</title>
<path fill="none" stroke="#c0c0c0" stroke-width="2" d="M1381.2704,-289.7941C1378.4818,-289.1593 1375.715,-288.557 1373.0014,-288 1265.7325,-265.981 1234.7527,-271.104 1123.1776,-252.1393"/>
<polygon fill="#c0c0c0" stroke="#c0c0c0" stroke-width="2" points="1123.6622,-248.6713 1113.2125,-250.4184 1122.471,-255.5692 1123.6622,-248.6713"/>
</g>
<!-- 20&#45;&gt;0 -->
<g id="edge19" class="edge">
<title>20&#45;&gt;0</title>
<path fill="none" stroke="#c0c0c0" stroke-width="2" d="M1957.3751,-287.981C1898.2427,-242.0687 1732.5293,-120.8762 1572.0014,-72 1433.2381,-29.7505 976.9096,-20.31 843.1569,-18.4286"/>
<polygon fill="#c0c0c0" stroke="#c0c0c0" stroke-width="2" points="843.059,-14.927 833.0127,-18.2919 842.9646,-21.9264 843.059,-14.927"/>
</g>
<!-- 20&#45;&gt;5 -->
<g id="edge38" class="edge">
<title>20&#45;&gt;5</title>
<path fill="none" stroke="#c0c0c0" stroke-width="2" d="M1921.3124,-289.5711C1918.5126,-288.996 1915.7319,-288.4673 1913.0014,-288 1693.6797,-250.4632 1431.4316,-239.0087 1297.4019,-235.5209"/>
<polygon fill="#c0c0c0" stroke="#c0c0c0" stroke-width="2" points="1297.2755,-232.0167 1287.1907,-235.2642 1297.0996,-239.0145 1297.2755,-232.0167"/>
</g>
<!-- 20&#45;&gt;23 -->
<g id="edge72" class="edge">
<title>20&#45;&gt;23</title>
<path fill="none" stroke="#c0c0c0" stroke-width="2" d="M1921.3339,-289.4377C1918.5283,-288.8982 1915.7405,-288.4136 1913.0014,-288 1491.9408,-224.4172 1375.8774,-302.4201 949.2894,-252.0248"/>
<polygon fill="#c0c0c0" stroke="#c0c0c0" stroke-width="2" points="949.4999,-248.5251 939.1545,-250.8103 948.667,-255.4753 949.4999,-248.5251"/>
</g>
<!-- 20&#45;&gt;26 -->
<g id="edge91" class="edge">
<title>20&#45;&gt;26</title>
<path fill="none" stroke="#c0c0c0" stroke-width="2" d="M1921.3296,-289.4656C1918.5252,-288.9186 1915.7388,-288.4248 1913.0014,-288 1568.5563,-234.5427 1473.0002,-294.6223 1123.3138,-252.0365"/>
<polygon fill="#c0c0c0" stroke="#c0c0c0" stroke-width="2" points="1123.5124,-248.5345 1113.1582,-250.7797 1122.6526,-255.4815 1123.5124,-248.5345"/>
</g>
<!-- 21&#45;&gt;0 -->
<g id="edge3" class="edge">
<title>21&#45;&gt;0</title>
<path fill="none" stroke="#c0c0c0" stroke-width="2" d="M806.0014,-71.8314C806.0014,-64.131 806.0014,-54.9743 806.0014,-46.4166"/>
<polygon fill="#c0c0c0" stroke="#c0c0c0" stroke-width="2" points="809.5015,-46.4132 806.0014,-36.4133 802.5015,-46.4133 809.5015,-46.4132"/>
</g>
<!-- 22 -->
<g id="node23" class="node">
<title>22</title>
<path fill="none" stroke="#d85656" stroke-width="2" stroke-dasharray="5,2" d="M818.5014,-180C818.5014,-180 691.5014,-180 691.5014,-180 685.5014,-180 679.5014,-174 679.5014,-168 679.5014,-168 679.5014,-156 679.5014,-156 679.5014,-150 685.5014,-144 691.5014,-144 691.5014,-144 818.5014,-144 818.5014,-144 824.5014,-144 830.5014,-150 830.5014,-156 830.5014,-156 830.5014,-168 830.5014,-168 830.5014,-174 824.5014,-180 818.5014,-180"/>
<text text-anchor="middle" x="755.0014" y="-159.5" font-family="sans" font-size="10.00" fill="#000000">leafcutter_intron_clustering</text>
</g>
<!-- 22&#45;&gt;21 -->
<g id="edge55" class="edge">
<title>22&#45;&gt;21</title>
<path fill="none" stroke="#c0c0c0" stroke-width="2" d="M767.8708,-143.8314C773.6849,-135.6232 780.671,-125.7606 787.066,-116.7323"/>
<polygon fill="#c0c0c0" stroke="#c0c0c0" stroke-width="2" points="790.0345,-118.5966 792.9586,-108.4133 784.3223,-114.5505 790.0345,-118.5966"/>
</g>
<!-- 23&#45;&gt;21 -->
<g id="edge56" class="edge">
<title>23&#45;&gt;21</title>
<path fill="none" stroke="#c0c0c0" stroke-width="2" d="M858.5843,-215.8646C855.6952,-197.2887 849.9555,-167.8371 840.0014,-144 836.0726,-134.5917 830.5744,-124.969 825.1431,-116.5021"/>
<polygon fill="#c0c0c0" stroke="#c0c0c0" stroke-width="2" points="828.0362,-114.5319 819.5758,-108.1544 822.2125,-118.4159 828.0362,-114.5319"/>
</g>
<!-- 23&#45;&gt;22 -->
<g id="edge57" class="edge">
<title>23&#45;&gt;22</title>
<path fill="none" stroke="#c0c0c0" stroke-width="2" d="M834.2531,-215.8314C820.9461,-206.7927 804.6853,-195.7476 790.3639,-186.0198"/>
<polygon fill="#c0c0c0" stroke="#c0c0c0" stroke-width="2" points="791.9799,-182.8864 781.7411,-180.1628 788.0467,-188.677 791.9799,-182.8864"/>
</g>
<!-- 24&#45;&gt;0 -->
<g id="edge4" class="edge">
<title>24&#45;&gt;0</title>
<path fill="none" stroke="#c0c0c0" stroke-width="2" d="M942.8227,-71.8314C911.8506,-59.6456 871.6099,-43.8132 842.8002,-32.4782"/>
<polygon fill="#c0c0c0" stroke="#c0c0c0" stroke-width="2" points="843.7077,-29.0742 833.1206,-28.6699 841.1448,-35.5881 843.7077,-29.0742"/>
</g>
<!-- 25 -->
<g id="node26" class="node">
<title>25</title>
<path fill="none" stroke="#d85656" stroke-width="2" stroke-dasharray="5,2" d="M1209.5014,-180C1209.5014,-180 1082.5014,-180 1082.5014,-180 1076.5014,-180 1070.5014,-174 1070.5014,-168 1070.5014,-168 1070.5014,-156 1070.5014,-156 1070.5014,-150 1076.5014,-144 1082.5014,-144 1082.5014,-144 1209.5014,-144 1209.5014,-144 1215.5014,-144 1221.5014,-150 1221.5014,-156 1221.5014,-156 1221.5014,-168 1221.5014,-168 1221.5014,-174 1215.5014,-180 1209.5014,-180"/>
<text text-anchor="middle" x="1146.0014" y="-159.5" font-family="sans" font-size="10.00" fill="#000000">leafcutter_intron_clustering</text>
</g>
<!-- 25&#45;&gt;24 -->
<g id="edge74" class="edge">
<title>25&#45;&gt;24</title>
<path fill="none" stroke="#c0c0c0" stroke-width="2" d="M1106.3836,-143.8314C1085.4791,-134.2446 1059.653,-122.4008 1037.5525,-112.2655"/>
<polygon fill="#c0c0c0" stroke="#c0c0c0" stroke-width="2" points="1038.883,-109.0252 1028.3342,-108.038 1035.9649,-115.388 1038.883,-109.0252"/>
</g>
<!-- 26&#45;&gt;24 -->
<g id="edge75" class="edge">
<title>26&#45;&gt;24</title>
<path fill="none" stroke="#c0c0c0" stroke-width="2" d="M962.1615,-215.8958C944.4169,-207.8802 927.5309,-196.3984 917.0014,-180 908.3564,-166.5366 909.8459,-158.3108 917.0014,-144 923.0152,-131.9724 933.1228,-121.9287 943.8921,-113.8944"/>
<polygon fill="#c0c0c0" stroke="#c0c0c0" stroke-width="2" points="945.9702,-116.7127 952.1995,-108.1426 941.9854,-110.9575 945.9702,-116.7127"/>
</g>
<!-- 26&#45;&gt;25 -->
<g id="edge76" class="edge">
<title>26&#45;&gt;25</title>
<path fill="none" stroke="#c0c0c0" stroke-width="2" d="M1063.0114,-215.8314C1077.0775,-206.7074 1094.2954,-195.539 1109.3947,-185.7449"/>
<polygon fill="#c0c0c0" stroke="#c0c0c0" stroke-width="2" points="1111.5154,-188.5412 1118.0003,-180.1628 1107.706,-182.6684 1111.5154,-188.5412"/>
</g>
</g>
</svg>
