<?xml version="1.0" encoding="UTF-8" standalone="no"?>
<!DOCTYPE svg PUBLIC "-//W3C//DTD SVG 1.1//EN"
 "http://www.w3.org/Graphics/SVG/1.1/DTD/svg11.dtd">
<!-- Generated by graphviz version 2.40.1 (20161225.0304)
 -->
<!-- Title: snakemake_dag Pages: 1 -->
<svg width="377pt" height="265pt"
 viewBox="0.00 0.00 377.00 265.00" xmlns="http://www.w3.org/2000/svg" xmlns:xlink="http://www.w3.org/1999/xlink">
<g id="graph0" class="graph" transform="scale(1 1) rotate(0) translate(4 261)">
<title>snakemake_dag</title>
<polygon fill="#ffffff" stroke="transparent" points="-4,4 -4,-261 373,-261 373,4 -4,4"/>
<!-- 0 -->
<g id="node1" class="node">
<title>0</title>
<path fill="none" stroke="#56d8d8" stroke-width="2" stroke-dasharray="5,2" d="M213.5,-36C213.5,-36 183.5,-36 183.5,-36 177.5,-36 171.5,-30 171.5,-24 171.5,-24 171.5,-12 171.5,-12 171.5,-6 177.5,0 183.5,0 183.5,0 213.5,0 213.5,0 219.5,0 225.5,-6 225.5,-12 225.5,-12 225.5,-24 225.5,-24 225.5,-30 219.5,-36 213.5,-36"/>
<text text-anchor="middle" x="198.5" y="-15.5" font-family="sans" font-size="10.00" fill="#000000">all</text>
</g>
<!-- 1 -->
<g id="node2" class="node">
<title>1</title>
<path fill="none" stroke="#d85656" stroke-width="2" stroke-dasharray="5,2" d="M99,-185C99,-185 12,-185 12,-185 6,-185 0,-179 0,-173 0,-173 0,-161 0,-161 0,-155 6,-149 12,-149 12,-149 99,-149 99,-149 105,-149 111,-155 111,-161 111,-161 111,-173 111,-173 111,-179 105,-185 99,-185"/>
<text text-anchor="middle" x="55.5" y="-170" font-family="sans" font-size="10.00" fill="#000000">rmats_create_input</text>
<text text-anchor="middle" x="55.5" y="-159" font-family="sans" font-size="10.00" fill="#000000">group: mix1</text>
</g>
<!-- 1&#45;&gt;0 -->
<g id="edge1" class="edge">
<title>1&#45;&gt;0</title>
<path fill="none" stroke="#c0c0c0" stroke-width="2" d="M52.2947,-148.9333C49.6776,-128.2197 48.7498,-94.2641 65.5,-72 88.1813,-41.8523 130.5473,-28.4768 161.3851,-22.5794"/>
<polygon fill="#c0c0c0" stroke="#c0c0c0" stroke-width="2" points="162.1,-26.0078 171.3561,-20.8527 160.9055,-19.1105 162.1,-26.0078"/>
</g>
<!-- 5 -->
<g id="node6" class="node">
<title>5</title>
<path fill="none" stroke="#59d856" stroke-width="2" stroke-dasharray="5,2" d="M128.5,-113C128.5,-113 86.5,-113 86.5,-113 80.5,-113 74.5,-107 74.5,-101 74.5,-101 74.5,-84 74.5,-84 74.5,-78 80.5,-72 86.5,-72 86.5,-72 128.5,-72 128.5,-72 134.5,-72 140.5,-78 140.5,-84 140.5,-84 140.5,-101 140.5,-101 140.5,-107 134.5,-113 128.5,-113"/>
<text text-anchor="middle" x="107.5" y="-101" font-family="sans" font-size="10.00" fill="#000000">rmats_run</text>
<text text-anchor="middle" x="107.5" y="-90" font-family="sans" font-size="10.00" fill="#000000">alt: mix2</text>
<text text-anchor="middle" x="107.5" y="-79" font-family="sans" font-size="10.00" fill="#000000">ref: mix1</text>
</g>
<!-- 1&#45;&gt;5 -->
<g id="edge11" class="edge">
<title>1&#45;&gt;5</title>
<path fill="none" stroke="#c0c0c0" stroke-width="2" d="M68.0877,-148.9656C73.841,-140.723 80.8008,-130.7518 87.2609,-121.4964"/>
<polygon fill="#c0c0c0" stroke="#c0c0c0" stroke-width="2" points="90.1508,-123.4712 93.0043,-113.2679 84.4107,-119.4647 90.1508,-123.4712"/>
</g>
<!-- 6 -->
<g id="node7" class="node">
<title>6</title>
<path fill="none" stroke="#59d856" stroke-width="2" stroke-dasharray="5,2" d="M250.5,-113C250.5,-113 208.5,-113 208.5,-113 202.5,-113 196.5,-107 196.5,-101 196.5,-101 196.5,-84 196.5,-84 196.5,-78 202.5,-72 208.5,-72 208.5,-72 250.5,-72 250.5,-72 256.5,-72 262.5,-78 262.5,-84 262.5,-84 262.5,-101 262.5,-101 262.5,-107 256.5,-113 250.5,-113"/>
<text text-anchor="middle" x="229.5" y="-101" font-family="sans" font-size="10.00" fill="#000000">rmats_run</text>
<text text-anchor="middle" x="229.5" y="-90" font-family="sans" font-size="10.00" fill="#000000">alt: mix3</text>
<text text-anchor="middle" x="229.5" y="-79" font-family="sans" font-size="10.00" fill="#000000">ref: mix1</text>
</g>
<!-- 1&#45;&gt;6 -->
<g id="edge13" class="edge">
<title>1&#45;&gt;6</title>
<path fill="none" stroke="#c0c0c0" stroke-width="2" d="M97.6205,-148.9656C124.7915,-137.3321 160.0047,-122.2552 187.2091,-110.6073"/>
<polygon fill="#c0c0c0" stroke="#c0c0c0" stroke-width="2" points="188.6561,-113.7951 196.4713,-106.6416 185.9009,-107.3602 188.6561,-113.7951"/>
</g>
<!-- 2 -->
<g id="node3" class="node">
<title>2</title>
<path fill="none" stroke="#d6d856" stroke-width="2" stroke-dasharray="5,2" d="M200.5,-257C200.5,-257 168.5,-257 168.5,-257 162.5,-257 156.5,-251 156.5,-245 156.5,-245 156.5,-233 156.5,-233 156.5,-227 162.5,-221 168.5,-221 168.5,-221 200.5,-221 200.5,-221 206.5,-221 212.5,-227 212.5,-233 212.5,-233 212.5,-245 212.5,-245 212.5,-251 206.5,-257 200.5,-257"/>
<text text-anchor="middle" x="184.5" y="-236.5" font-family="sans" font-size="10.00" fill="#000000">symlink</text>
</g>
<!-- 2&#45;&gt;1 -->
<g id="edge7" class="edge">
<title>2&#45;&gt;1</title>
<path fill="none" stroke="#c0c0c0" stroke-width="2" d="M156.1904,-223.1993C138.7752,-213.4792 116.1555,-200.8543 96.7681,-190.0334"/>
<polygon fill="#c0c0c0" stroke="#c0c0c0" stroke-width="2" points="98.2714,-186.8642 87.8337,-185.0467 94.8598,-192.9766 98.2714,-186.8642"/>
</g>
<!-- 3 -->
<g id="node4" class="node">
<title>3</title>
<path fill="none" stroke="#d85656" stroke-width="2" stroke-dasharray="5,2" d="M228,-185C228,-185 141,-185 141,-185 135,-185 129,-179 129,-173 129,-173 129,-161 129,-161 129,-155 135,-149 141,-149 141,-149 228,-149 228,-149 234,-149 240,-155 240,-161 240,-161 240,-173 240,-173 240,-179 234,-185 228,-185"/>
<text text-anchor="middle" x="184.5" y="-170" font-family="sans" font-size="10.00" fill="#000000">rmats_create_input</text>
<text text-anchor="middle" x="184.5" y="-159" font-family="sans" font-size="10.00" fill="#000000">group: mix2</text>
</g>
<!-- 2&#45;&gt;3 -->
<g id="edge8" class="edge">
<title>2&#45;&gt;3</title>
<path fill="none" stroke="#c0c0c0" stroke-width="2" d="M184.5,-220.8314C184.5,-213.131 184.5,-203.9743 184.5,-195.4166"/>
<polygon fill="#c0c0c0" stroke="#c0c0c0" stroke-width="2" points="188.0001,-195.4132 184.5,-185.4133 181.0001,-195.4133 188.0001,-195.4132"/>
</g>
<!-- 4 -->
<g id="node5" class="node">
<title>4</title>
<path fill="none" stroke="#d85656" stroke-width="2" stroke-dasharray="5,2" d="M357,-185C357,-185 270,-185 270,-185 264,-185 258,-179 258,-173 258,-173 258,-161 258,-161 258,-155 264,-149 270,-149 270,-149 357,-149 357,-149 363,-149 369,-155 369,-161 369,-161 369,-173 369,-173 369,-179 363,-185 357,-185"/>
<text text-anchor="middle" x="313.5" y="-170" font-family="sans" font-size="10.00" fill="#000000">rmats_create_input</text>
<text text-anchor="middle" x="313.5" y="-159" font-family="sans" font-size="10.00" fill="#000000">group: mix3</text>
</g>
<!-- 2&#45;&gt;4 -->
<g id="edge9" class="edge">
<title>2&#45;&gt;4</title>
<path fill="none" stroke="#c0c0c0" stroke-width="2" d="M212.8096,-223.1993C230.2248,-213.4792 252.8445,-200.8543 272.2319,-190.0334"/>
<polygon fill="#c0c0c0" stroke="#c0c0c0" stroke-width="2" points="274.1402,-192.9766 281.1663,-185.0467 270.7286,-186.8642 274.1402,-192.9766"/>
</g>
<!-- 3&#45;&gt;0 -->
<g id="edge2" class="edge">
<title>3&#45;&gt;0</title>
<path fill="none" stroke="#c0c0c0" stroke-width="2" d="M184.1621,-148.7203C184.0214,-129.5417 184.3991,-98.5516 187.5,-72 188.4832,-63.581 190.1033,-54.5218 191.8018,-46.2739"/>
<polygon fill="#c0c0c0" stroke="#c0c0c0" stroke-width="2" points="195.2506,-46.8847 193.9529,-36.3697 188.4101,-45.3989 195.2506,-46.8847"/>
</g>
<!-- 3&#45;&gt;5 -->
<g id="edge10" class="edge">
<title>3&#45;&gt;5</title>
<path fill="none" stroke="#c0c0c0" stroke-width="2" d="M165.8604,-148.9656C156.9935,-140.3866 146.1912,-129.9349 136.3019,-120.3668"/>
<polygon fill="#c0c0c0" stroke="#c0c0c0" stroke-width="2" points="138.5853,-117.706 128.9648,-113.2679 133.7179,-122.7367 138.5853,-117.706"/>
</g>
<!-- 7 -->
<g id="node8" class="node">
<title>7</title>
<path fill="none" stroke="#59d856" stroke-width="2" stroke-dasharray="5,2" d="M334.5,-113C334.5,-113 292.5,-113 292.5,-113 286.5,-113 280.5,-107 280.5,-101 280.5,-101 280.5,-84 280.5,-84 280.5,-78 286.5,-72 292.5,-72 292.5,-72 334.5,-72 334.5,-72 340.5,-72 346.5,-78 346.5,-84 346.5,-84 346.5,-101 346.5,-101 346.5,-107 340.5,-113 334.5,-113"/>
<text text-anchor="middle" x="313.5" y="-101" font-family="sans" font-size="10.00" fill="#000000">rmats_run</text>
<text text-anchor="middle" x="313.5" y="-90" font-family="sans" font-size="10.00" fill="#000000">alt: mix3</text>
<text text-anchor="middle" x="313.5" y="-79" font-family="sans" font-size="10.00" fill="#000000">ref: mix2</text>
</g>
<!-- 3&#45;&gt;7 -->
<g id="edge15" class="edge">
<title>3&#45;&gt;7</title>
<path fill="none" stroke="#c0c0c0" stroke-width="2" d="M215.7273,-148.9656C232.5164,-139.2696 253.4472,-127.1817 271.6302,-116.6806"/>
<polygon fill="#c0c0c0" stroke="#c0c0c0" stroke-width="2" points="273.3963,-119.7025 280.3055,-111.6705 269.8955,-113.6408 273.3963,-119.7025"/>
</g>
<!-- 4&#45;&gt;0 -->
<g id="edge3" class="edge">
<title>4&#45;&gt;0</title>
<path fill="none" stroke="#c0c0c0" stroke-width="2" d="M332.1995,-148.7035C350.3392,-128.6843 372.7826,-96.2206 355.5,-72 341.3477,-52.1664 277.417,-34.9783 235.6265,-25.5914"/>
<polygon fill="#c0c0c0" stroke="#c0c0c0" stroke-width="2" points="236.2989,-22.1558 225.7812,-23.4315 234.7988,-28.9931 236.2989,-22.1558"/>
</g>
<!-- 4&#45;&gt;6 -->
<g id="edge12" class="edge">
<title>4&#45;&gt;6</title>
<path fill="none" stroke="#c0c0c0" stroke-width="2" d="M293.1659,-148.9656C283.3981,-140.3025 271.4773,-129.7298 260.6033,-120.0857"/>
<polygon fill="#c0c0c0" stroke="#c0c0c0" stroke-width="2" points="262.72,-117.2847 252.9161,-113.2679 258.0752,-122.5218 262.72,-117.2847"/>
</g>
<!-- 4&#45;&gt;7 -->
<g id="edge14" class="edge">
<title>4&#45;&gt;7</title>
<path fill="none" stroke="#c0c0c0" stroke-width="2" d="M313.5,-148.9656C313.5,-141.3118 313.5,-132.1674 313.5,-123.4898"/>
<polygon fill="#c0c0c0" stroke="#c0c0c0" stroke-width="2" points="317.0001,-123.2678 313.5,-113.2679 310.0001,-123.2679 317.0001,-123.2678"/>
</g>
<!-- 5&#45;&gt;0 -->
<g id="edge4" class="edge">
<title>5&#45;&gt;0</title>
<path fill="none" stroke="#c0c0c0" stroke-width="2" d="M132.8486,-71.7476C143.8514,-62.7398 156.8245,-52.119 168.3203,-42.7076"/>
<polygon fill="#c0c0c0" stroke="#c0c0c0" stroke-width="2" points="170.8601,-45.1516 176.3807,-36.1087 166.4258,-39.7352 170.8601,-45.1516"/>
</g>
<!-- 6&#45;&gt;0 -->
<g id="edge5" class="edge">
<title>6&#45;&gt;0</title>
<path fill="none" stroke="#c0c0c0" stroke-width="2" d="M220.8648,-71.7476C217.4805,-63.6143 213.549,-54.1661 209.9348,-45.4804"/>
<polygon fill="#c0c0c0" stroke="#c0c0c0" stroke-width="2" points="213.1084,-43.9966 206.0351,-36.1087 206.6456,-46.6859 213.1084,-43.9966"/>
</g>
<!-- 7&#45;&gt;0 -->
<g id="edge6" class="edge">
<title>7&#45;&gt;0</title>
<path fill="none" stroke="#c0c0c0" stroke-width="2" d="M281.7713,-71.9453C267.0993,-62.4404 249.6048,-51.107 234.4467,-41.2872"/>
<polygon fill="#c0c0c0" stroke="#c0c0c0" stroke-width="2" points="236.1266,-38.2053 225.8309,-35.7056 232.3207,-44.0802 236.1266,-38.2053"/>
</g>
</g>
</svg>
