<?xml version="1.0" encoding="UTF-8" standalone="no"?>
<!DOCTYPE svg PUBLIC "-//W3C//DTD SVG 1.1//EN"
 "http://www.w3.org/Graphics/SVG/1.1/DTD/svg11.dtd">
<!-- Generated by graphviz version 2.40.1 (20161225.0304)
 -->
<!-- Title: snakemake_dag Pages: 1 -->
<svg width="662pt" height="332pt"
 viewBox="0.00 0.00 662.01 332.00" xmlns="http://www.w3.org/2000/svg" xmlns:xlink="http://www.w3.org/1999/xlink">
<g id="graph0" class="graph" transform="scale(1 1) rotate(0) translate(4 328)">
<title>snakemake_dag</title>
<polygon fill="#ffffff" stroke="transparent" points="-4,4 -4,-328 658.0069,-328 658.0069,4 -4,4"/>
<!-- 0 -->
<g id="node1" class="node">
<title>0</title>
<path fill="none" stroke="#56d88a" stroke-width="2" stroke-dasharray="5,2" d="M269.3818,-36C269.3818,-36 239.3818,-36 239.3818,-36 233.3818,-36 227.3818,-30 227.3818,-24 227.3818,-24 227.3818,-12 227.3818,-12 227.3818,-6 233.3818,0 239.3818,0 239.3818,0 269.3818,0 269.3818,0 275.3818,0 281.3818,-6 281.3818,-12 281.3818,-12 281.3818,-24 281.3818,-24 281.3818,-30 275.3818,-36 269.3818,-36"/>
<text text-anchor="middle" x="254.3818" y="-15.5" font-family="sans" font-size="10.00" fill="#000000">all</text>
</g>
<!-- 1 -->
<g id="node2" class="node">
<title>1</title>
<path fill="none" stroke="#d8bc56" stroke-width="2" stroke-dasharray="5,2" d="M189.3818,-324C189.3818,-324 157.3818,-324 157.3818,-324 151.3818,-324 145.3818,-318 145.3818,-312 145.3818,-312 145.3818,-300 145.3818,-300 145.3818,-294 151.3818,-288 157.3818,-288 157.3818,-288 189.3818,-288 189.3818,-288 195.3818,-288 201.3818,-294 201.3818,-300 201.3818,-300 201.3818,-312 201.3818,-312 201.3818,-318 195.3818,-324 189.3818,-324"/>
<text text-anchor="middle" x="173.3818" y="-303.5" font-family="sans" font-size="10.00" fill="#000000">symlink</text>
</g>
<!-- 1&#45;&gt;0 -->
<g id="edge1" class="edge">
<title>1&#45;&gt;0</title>
<path fill="none" stroke="#c0c0c0" stroke-width="2" d="M145.1914,-301.9359C114.1978,-296.0686 64.7755,-282.3832 34.3818,-252 -.6876,-216.9428 -5.8003,-192.0673 6.3818,-144 15.3224,-108.7224 16.7123,-94.4167 45.3818,-72 71.9523,-51.2244 164.4845,-32.9677 217.0836,-23.9588"/>
<polygon fill="#c0c0c0" stroke="#c0c0c0" stroke-width="2" points="217.7597,-27.3944 227.0396,-22.2824 216.5972,-20.4915 217.7597,-27.3944"/>
</g>
<!-- 2 -->
<g id="node3" class="node">
<title>2</title>
<path fill="none" stroke="#56c1d8" stroke-width="2" stroke-dasharray="5,2" d="M152.8818,-252C152.8818,-252 55.8818,-252 55.8818,-252 49.8818,-252 43.8818,-246 43.8818,-240 43.8818,-240 43.8818,-228 43.8818,-228 43.8818,-222 49.8818,-216 55.8818,-216 55.8818,-216 152.8818,-216 152.8818,-216 158.8818,-216 164.8818,-222 164.8818,-228 164.8818,-228 164.8818,-240 164.8818,-240 164.8818,-246 158.8818,-252 152.8818,-252"/>
<text text-anchor="middle" x="104.3818" y="-237" font-family="sans" font-size="10.00" fill="#000000">stringtie_merge_bam</text>
<text text-anchor="middle" x="104.3818" y="-226" font-family="sans" font-size="10.00" fill="#000000">group: mix2</text>
</g>
<!-- 1&#45;&gt;2 -->
<g id="edge9" class="edge">
<title>1&#45;&gt;2</title>
<path fill="none" stroke="#c0c0c0" stroke-width="2" d="M155.9701,-287.8314C147.8607,-279.3694 138.0661,-269.1489 129.1998,-259.8971"/>
<polygon fill="#c0c0c0" stroke="#c0c0c0" stroke-width="2" points="131.4739,-257.2115 122.0278,-252.4133 126.4199,-262.0549 131.4739,-257.2115"/>
</g>
<!-- 3 -->
<g id="node4" class="node">
<title>3</title>
<path fill="none" stroke="#56c1d8" stroke-width="2" stroke-dasharray="5,2" d="M291.8818,-252C291.8818,-252 194.8818,-252 194.8818,-252 188.8818,-252 182.8818,-246 182.8818,-240 182.8818,-240 182.8818,-228 182.8818,-228 182.8818,-222 188.8818,-216 194.8818,-216 194.8818,-216 291.8818,-216 291.8818,-216 297.8818,-216 303.8818,-222 303.8818,-228 303.8818,-228 303.8818,-240 303.8818,-240 303.8818,-246 297.8818,-252 291.8818,-252"/>
<text text-anchor="middle" x="243.3818" y="-237" font-family="sans" font-size="10.00" fill="#000000">stringtie_merge_bam</text>
<text text-anchor="middle" x="243.3818" y="-226" font-family="sans" font-size="10.00" fill="#000000">group: mix3</text>
</g>
<!-- 1&#45;&gt;3 -->
<g id="edge10" class="edge">
<title>1&#45;&gt;3</title>
<path fill="none" stroke="#c0c0c0" stroke-width="2" d="M191.0457,-287.8314C199.3549,-279.2848 209.4081,-268.9443 218.4736,-259.6198"/>
<polygon fill="#c0c0c0" stroke="#c0c0c0" stroke-width="2" points="221.0186,-262.023 225.48,-252.4133 215.9997,-257.1435 221.0186,-262.023"/>
</g>
<!-- 4 -->
<g id="node5" class="node">
<title>4</title>
<path fill="none" stroke="#56c1d8" stroke-width="2" stroke-dasharray="5,2" d="M596.8818,-252C596.8818,-252 499.8818,-252 499.8818,-252 493.8818,-252 487.8818,-246 487.8818,-240 487.8818,-240 487.8818,-228 487.8818,-228 487.8818,-222 493.8818,-216 499.8818,-216 499.8818,-216 596.8818,-216 596.8818,-216 602.8818,-216 608.8818,-222 608.8818,-228 608.8818,-228 608.8818,-240 608.8818,-240 608.8818,-246 602.8818,-252 596.8818,-252"/>
<text text-anchor="middle" x="548.3818" y="-237" font-family="sans" font-size="10.00" fill="#000000">stringtie_merge_bam</text>
<text text-anchor="middle" x="548.3818" y="-226" font-family="sans" font-size="10.00" fill="#000000">group: mix1</text>
</g>
<!-- 1&#45;&gt;4 -->
<g id="edge11" class="edge">
<title>1&#45;&gt;4</title>
<path fill="none" stroke="#c0c0c0" stroke-width="2" d="M201.5677,-300.5883C259.6739,-289.4319 394.3092,-263.5819 477.7001,-247.5709"/>
<polygon fill="#c0c0c0" stroke="#c0c0c0" stroke-width="2" points="478.4465,-250.9916 487.6071,-245.6687 477.1265,-244.1172 478.4465,-250.9916"/>
</g>
<!-- 2&#45;&gt;0 -->
<g id="edge2" class="edge">
<title>2&#45;&gt;0</title>
<path fill="none" stroke="#c0c0c0" stroke-width="2" d="M56.3898,-215.9585C40.7856,-207.5363 25.223,-195.7985 16.3818,-180 8.5681,-166.0377 8.1289,-157.7073 16.3818,-144 60.2196,-71.1895 161.8071,-38.2502 217.0244,-25.2709"/>
<polygon fill="#c0c0c0" stroke="#c0c0c0" stroke-width="2" points="218.1071,-28.6149 227.0948,-23.0048 216.5703,-21.7857 218.1071,-28.6149"/>
</g>
<!-- 5 -->
<g id="node6" class="node">
<title>5</title>
<path fill="none" stroke="#d85656" stroke-width="2" stroke-dasharray="5,2" d="M192.8818,-180C192.8818,-180 37.8818,-180 37.8818,-180 31.8818,-180 25.8818,-174 25.8818,-168 25.8818,-168 25.8818,-156 25.8818,-156 25.8818,-150 31.8818,-144 37.8818,-144 37.8818,-144 192.8818,-144 192.8818,-144 198.8818,-144 204.8818,-150 204.8818,-156 204.8818,-156 204.8818,-168 204.8818,-168 204.8818,-174 198.8818,-180 192.8818,-180"/>
<text text-anchor="middle" x="115.3818" y="-159.5" font-family="sans" font-size="10.00" fill="#000000">stringtie_denovo_transcriptomics</text>
</g>
<!-- 2&#45;&gt;5 -->
<g id="edge12" class="edge">
<title>2&#45;&gt;5</title>
<path fill="none" stroke="#c0c0c0" stroke-width="2" d="M107.1575,-215.8314C108.334,-208.131 109.7329,-198.9743 111.0403,-190.4166"/>
<polygon fill="#c0c0c0" stroke="#c0c0c0" stroke-width="2" points="114.5181,-190.8272 112.5686,-180.4133 107.5984,-189.7699 114.5181,-190.8272"/>
</g>
<!-- 3&#45;&gt;0 -->
<g id="edge3" class="edge">
<title>3&#45;&gt;0</title>
<path fill="none" stroke="#c0c0c0" stroke-width="2" d="M244.3007,-215.9555C246.2136,-178.3938 250.6359,-91.5541 252.9349,-46.4103"/>
<polygon fill="#c0c0c0" stroke="#c0c0c0" stroke-width="2" points="256.4445,-46.3102 253.4577,-36.1451 249.4535,-45.9541 256.4445,-46.3102"/>
</g>
<!-- 6 -->
<g id="node7" class="node">
<title>6</title>
<path fill="none" stroke="#d85656" stroke-width="2" stroke-dasharray="5,2" d="M428.8818,-180C428.8818,-180 273.8818,-180 273.8818,-180 267.8818,-180 261.8818,-174 261.8818,-168 261.8818,-168 261.8818,-156 261.8818,-156 261.8818,-150 267.8818,-144 273.8818,-144 273.8818,-144 428.8818,-144 428.8818,-144 434.8818,-144 440.8818,-150 440.8818,-156 440.8818,-156 440.8818,-168 440.8818,-168 440.8818,-174 434.8818,-180 428.8818,-180"/>
<text text-anchor="middle" x="351.3818" y="-159.5" font-family="sans" font-size="10.00" fill="#000000">stringtie_denovo_transcriptomics</text>
</g>
<!-- 3&#45;&gt;6 -->
<g id="edge13" class="edge">
<title>3&#45;&gt;6</title>
<path fill="none" stroke="#c0c0c0" stroke-width="2" d="M270.6347,-215.8314C284.3207,-206.7074 301.0732,-195.539 315.7645,-185.7449"/>
<polygon fill="#c0c0c0" stroke="#c0c0c0" stroke-width="2" points="317.7585,-188.6221 324.1375,-180.1628 313.8755,-182.7977 317.7585,-188.6221"/>
</g>
<!-- 4&#45;&gt;0 -->
<g id="edge4" class="edge">
<title>4&#45;&gt;0</title>
<path fill="none" stroke="#c0c0c0" stroke-width="2" d="M605.0746,-215.8966C621.637,-207.6746 637.8376,-196.0776 647.3818,-180 655.5492,-166.2416 656.691,-157.013 647.3818,-144 604.9254,-84.6525 381.24,-39.9796 291.5909,-24.1998"/>
<polygon fill="#c0c0c0" stroke="#c0c0c0" stroke-width="2" points="292.0438,-20.7261 281.5921,-22.4622 290.8452,-27.6228 292.0438,-20.7261"/>
</g>
<!-- 7 -->
<g id="node8" class="node">
<title>7</title>
<path fill="none" stroke="#d85656" stroke-width="2" stroke-dasharray="5,2" d="M625.8818,-180C625.8818,-180 470.8818,-180 470.8818,-180 464.8818,-180 458.8818,-174 458.8818,-168 458.8818,-168 458.8818,-156 458.8818,-156 458.8818,-150 464.8818,-144 470.8818,-144 470.8818,-144 625.8818,-144 625.8818,-144 631.8818,-144 637.8818,-150 637.8818,-156 637.8818,-156 637.8818,-168 637.8818,-168 637.8818,-174 631.8818,-180 625.8818,-180"/>
<text text-anchor="middle" x="548.3818" y="-159.5" font-family="sans" font-size="10.00" fill="#000000">stringtie_denovo_transcriptomics</text>
</g>
<!-- 4&#45;&gt;7 -->
<g id="edge14" class="edge">
<title>4&#45;&gt;7</title>
<path fill="none" stroke="#c0c0c0" stroke-width="2" d="M548.3818,-215.8314C548.3818,-208.131 548.3818,-198.9743 548.3818,-190.4166"/>
<polygon fill="#c0c0c0" stroke="#c0c0c0" stroke-width="2" points="551.8819,-190.4132 548.3818,-180.4133 544.8819,-190.4133 551.8819,-190.4132"/>
</g>
<!-- 5&#45;&gt;0 -->
<g id="edge5" class="edge">
<title>5&#45;&gt;0</title>
<path fill="none" stroke="#c0c0c0" stroke-width="2" d="M132.9862,-143.7623C157.5302,-118.3354 202.1358,-72.1253 229.9053,-43.3569"/>
<polygon fill="#c0c0c0" stroke="#c0c0c0" stroke-width="2" points="232.4934,-45.7153 236.9202,-36.0896 227.4569,-40.8537 232.4934,-45.7153"/>
</g>
<!-- 8 -->
<g id="node9" class="node">
<title>8</title>
<path fill="none" stroke="#88d856" stroke-width="2" stroke-dasharray="5,2" d="M367.3818,-108C367.3818,-108 319.3818,-108 319.3818,-108 313.3818,-108 307.3818,-102 307.3818,-96 307.3818,-96 307.3818,-84 307.3818,-84 307.3818,-78 313.3818,-72 319.3818,-72 319.3818,-72 367.3818,-72 367.3818,-72 373.3818,-72 379.3818,-78 379.3818,-84 379.3818,-84 379.3818,-96 379.3818,-96 379.3818,-102 373.3818,-108 367.3818,-108"/>
<text text-anchor="middle" x="343.3818" y="-87.5" font-family="sans" font-size="10.00" fill="#000000">gffcompare</text>
</g>
<!-- 5&#45;&gt;8 -->
<g id="edge15" class="edge">
<title>5&#45;&gt;8</title>
<path fill="none" stroke="#c0c0c0" stroke-width="2" d="M172.6215,-143.9243C211.2052,-131.74 261.4352,-115.8778 297.4122,-104.5167"/>
<polygon fill="#c0c0c0" stroke="#c0c0c0" stroke-width="2" points="298.6782,-107.7874 307.16,-101.4384 296.5702,-101.1123 298.6782,-107.7874"/>
</g>
<!-- 6&#45;&gt;0 -->
<g id="edge6" class="edge">
<title>6&#45;&gt;0</title>
<path fill="none" stroke="#c0c0c0" stroke-width="2" d="M330.6241,-143.8592C320.1037,-133.9635 307.6331,-121.086 298.3818,-108 284.5946,-88.4982 272.9383,-64.0222 265.0938,-45.5198"/>
<polygon fill="#c0c0c0" stroke="#c0c0c0" stroke-width="2" points="268.2925,-44.0957 261.2434,-36.1862 261.8215,-46.7653 268.2925,-44.0957"/>
</g>
<!-- 6&#45;&gt;8 -->
<g id="edge16" class="edge">
<title>6&#45;&gt;8</title>
<path fill="none" stroke="#c0c0c0" stroke-width="2" d="M349.363,-143.8314C348.5074,-136.131 347.49,-126.9743 346.5392,-118.4166"/>
<polygon fill="#c0c0c0" stroke="#c0c0c0" stroke-width="2" points="350.0107,-117.9656 345.4277,-108.4133 343.0535,-118.7386 350.0107,-117.9656"/>
</g>
<!-- 7&#45;&gt;0 -->
<g id="edge7" class="edge">
<title>7&#45;&gt;0</title>
<path fill="none" stroke="#c0c0c0" stroke-width="2" d="M518.9169,-143.9013C487.2715,-124.8274 435.2105,-94.4901 388.3818,-72 356.1631,-56.5266 318.2932,-41.5476 291.0463,-31.307"/>
<polygon fill="#c0c0c0" stroke="#c0c0c0" stroke-width="2" points="292.1115,-27.9689 281.5187,-27.7564 289.667,-34.5282 292.1115,-27.9689"/>
</g>
<!-- 7&#45;&gt;8 -->
<g id="edge17" class="edge">
<title>7&#45;&gt;8</title>
<path fill="none" stroke="#c0c0c0" stroke-width="2" d="M496.9162,-143.9243C463.811,-132.2971 421.1701,-117.3208 389.2297,-106.1027"/>
<polygon fill="#c0c0c0" stroke="#c0c0c0" stroke-width="2" points="390.2779,-102.7613 379.683,-102.7497 387.9582,-109.3658 390.2779,-102.7613"/>
</g>
<!-- 8&#45;&gt;0 -->
<g id="edge8" class="edge">
<title>8&#45;&gt;0</title>
<path fill="none" stroke="#c0c0c0" stroke-width="2" d="M320.9233,-71.8314C309.9613,-62.9632 296.6119,-52.1637 284.7553,-42.5718"/>
<polygon fill="#c0c0c0" stroke="#c0c0c0" stroke-width="2" points="286.8089,-39.7313 276.833,-36.1628 282.4062,-45.1734 286.8089,-39.7313"/>
</g>
</g>
</svg>
