<?xml version="1.0" encoding="UTF-8" standalone="no"?>
<!DOCTYPE svg PUBLIC "-//W3C//DTD SVG 1.1//EN"
 "http://www.w3.org/Graphics/SVG/1.1/DTD/svg11.dtd">
<!-- Generated by graphviz version 2.40.1 (20161225.0304)
 -->
<!-- Title: snakemake_dag Pages: 1 -->
<svg width="2046pt" height="332pt"
 viewBox="0.00 0.00 2046.00 332.00" xmlns="http://www.w3.org/2000/svg" xmlns:xlink="http://www.w3.org/1999/xlink">
<g id="graph0" class="graph" transform="scale(1 1) rotate(0) translate(4 328)">
<title>snakemake_dag</title>
<polygon fill="#ffffff" stroke="transparent" points="-4,4 -4,-328 2042,-328 2042,4 -4,4"/>
<!-- 0 -->
<g id="node1" class="node">
<title>0</title>
<path fill="none" stroke="#c6d856" stroke-width="2" stroke-dasharray="5,2" d="M979.5,-36C979.5,-36 949.5,-36 949.5,-36 943.5,-36 937.5,-30 937.5,-24 937.5,-24 937.5,-12 937.5,-12 937.5,-6 943.5,0 949.5,0 949.5,0 979.5,0 979.5,0 985.5,0 991.5,-6 991.5,-12 991.5,-12 991.5,-24 991.5,-24 991.5,-30 985.5,-36 979.5,-36"/>
<text text-anchor="middle" x="964.5" y="-15.5" font-family="sans" font-size="10.00" fill="#000000">all</text>
</g>
<!-- 1 -->
<g id="node2" class="node">
<title>1</title>
<path fill="none" stroke="#56d87b" stroke-width="2" stroke-dasharray="5,2" d="M1040,-252C1040,-252 975,-252 975,-252 969,-252 963,-246 963,-240 963,-240 963,-228 963,-228 963,-222 969,-216 975,-216 975,-216 1040,-216 1040,-216 1046,-216 1052,-222 1052,-228 1052,-228 1052,-240 1052,-240 1052,-246 1046,-252 1040,-252"/>
<text text-anchor="middle" x="1007.5" y="-237" font-family="sans" font-size="10.00" fill="#000000">junctionseq_qc</text>
<text text-anchor="middle" x="1007.5" y="-226" font-family="sans" font-size="10.00" fill="#000000">name: mix1_1</text>
</g>
<!-- 1&#45;&gt;0 -->
<g id="edge1" class="edge">
<title>1&#45;&gt;0</title>
<path fill="none" stroke="#c0c0c0" stroke-width="2" d="M1007.1377,-215.6809C1006.1433,-185.2988 1002.4214,-122.798 988.5,-72 986.0833,-63.1816 982.4404,-53.9583 978.718,-45.6809"/>
<polygon fill="#c0c0c0" stroke="#c0c0c0" stroke-width="2" points="981.8103,-44.0323 974.3804,-36.4793 975.4785,-47.0171 981.8103,-44.0323"/>
</g>
<!-- 20 -->
<g id="node21" class="node">
<title>20</title>
<path fill="none" stroke="#56d8c9" stroke-width="2" stroke-dasharray="5,2" d="M954.5,-180C954.5,-180 868.5,-180 868.5,-180 862.5,-180 856.5,-174 856.5,-168 856.5,-168 856.5,-156 856.5,-156 856.5,-150 862.5,-144 868.5,-144 868.5,-144 954.5,-144 954.5,-144 960.5,-144 966.5,-150 966.5,-156 966.5,-156 966.5,-168 966.5,-168 966.5,-174 960.5,-180 954.5,-180"/>
<text text-anchor="middle" x="911.5" y="-159.5" font-family="sans" font-size="10.00" fill="#000000">junctionseq_merge</text>
</g>
<!-- 1&#45;&gt;20 -->
<g id="edge39" class="edge">
<title>1&#45;&gt;20</title>
<path fill="none" stroke="#c0c0c0" stroke-width="2" d="M983.2751,-215.8314C971.3372,-206.8779 956.7744,-195.9558 943.894,-186.2955"/>
<polygon fill="#c0c0c0" stroke="#c0c0c0" stroke-width="2" points="945.8171,-183.3629 935.7171,-180.1628 941.6171,-188.9629 945.8171,-183.3629"/>
</g>
<!-- 2 -->
<g id="node3" class="node">
<title>2</title>
<path fill="none" stroke="#d8a456" stroke-width="2" stroke-dasharray="5,2" d="M809.5,-324C809.5,-324 777.5,-324 777.5,-324 771.5,-324 765.5,-318 765.5,-312 765.5,-312 765.5,-300 765.5,-300 765.5,-294 771.5,-288 777.5,-288 777.5,-288 809.5,-288 809.5,-288 815.5,-288 821.5,-294 821.5,-300 821.5,-300 821.5,-312 821.5,-312 821.5,-318 815.5,-324 809.5,-324"/>
<text text-anchor="middle" x="793.5" y="-303.5" font-family="sans" font-size="10.00" fill="#000000">symlink</text>
</g>
<!-- 2&#45;&gt;1 -->
<g id="edge23" class="edge">
<title>2&#45;&gt;1</title>
<path fill="none" stroke="#c0c0c0" stroke-width="2" d="M821.7218,-296.5702C851.9915,-286.4484 901.7244,-269.7957 953.3197,-252.3934"/>
<polygon fill="#c0c0c0" stroke="#c0c0c0" stroke-width="2" points="954.6151,-255.6502 962.9711,-249.1366 952.377,-249.0177 954.6151,-255.6502"/>
</g>
<!-- 3 -->
<g id="node4" class="node">
<title>3</title>
<path fill="none" stroke="#56d87b" stroke-width="2" stroke-dasharray="5,2" d="M1147,-252C1147,-252 1082,-252 1082,-252 1076,-252 1070,-246 1070,-240 1070,-240 1070,-228 1070,-228 1070,-222 1076,-216 1082,-216 1082,-216 1147,-216 1147,-216 1153,-216 1159,-222 1159,-228 1159,-228 1159,-240 1159,-240 1159,-246 1153,-252 1147,-252"/>
<text text-anchor="middle" x="1114.5" y="-237" font-family="sans" font-size="10.00" fill="#000000">junctionseq_qc</text>
<text text-anchor="middle" x="1114.5" y="-226" font-family="sans" font-size="10.00" fill="#000000">name: mix2_1</text>
</g>
<!-- 2&#45;&gt;3 -->
<g id="edge24" class="edge">
<title>2&#45;&gt;3</title>
<path fill="none" stroke="#c0c0c0" stroke-width="2" d="M821.5529,-301.5704C868.9618,-293.8229 968.0346,-276.5072 1060.0634,-252.2336"/>
<polygon fill="#c0c0c0" stroke="#c0c0c0" stroke-width="2" points="1061.0474,-255.5935 1069.8049,-249.6305 1059.2403,-248.8308 1061.0474,-255.5935"/>
</g>
<!-- 4 -->
<g id="node5" class="node">
<title>4</title>
<path fill="none" stroke="#56d87b" stroke-width="2" stroke-dasharray="5,2" d="M1254,-252C1254,-252 1189,-252 1189,-252 1183,-252 1177,-246 1177,-240 1177,-240 1177,-228 1177,-228 1177,-222 1183,-216 1189,-216 1189,-216 1254,-216 1254,-216 1260,-216 1266,-222 1266,-228 1266,-228 1266,-240 1266,-240 1266,-246 1260,-252 1254,-252"/>
<text text-anchor="middle" x="1221.5" y="-237" font-family="sans" font-size="10.00" fill="#000000">junctionseq_qc</text>
<text text-anchor="middle" x="1221.5" y="-226" font-family="sans" font-size="10.00" fill="#000000">name: mix3_1</text>
</g>
<!-- 2&#45;&gt;4 -->
<g id="edge25" class="edge">
<title>2&#45;&gt;4</title>
<path fill="none" stroke="#c0c0c0" stroke-width="2" d="M821.5883,-303.7388C882.8992,-298.4259 1033.3069,-283.3419 1166.8576,-252.18"/>
<polygon fill="#c0c0c0" stroke="#c0c0c0" stroke-width="2" points="1167.9281,-255.5233 1176.8506,-249.8102 1166.3128,-248.7122 1167.9281,-255.5233"/>
</g>
<!-- 5 -->
<g id="node6" class="node">
<title>5</title>
<path fill="none" stroke="#56d87b" stroke-width="2" stroke-dasharray="5,2" d="M1361,-252C1361,-252 1296,-252 1296,-252 1290,-252 1284,-246 1284,-240 1284,-240 1284,-228 1284,-228 1284,-222 1290,-216 1296,-216 1296,-216 1361,-216 1361,-216 1367,-216 1373,-222 1373,-228 1373,-228 1373,-240 1373,-240 1373,-246 1367,-252 1361,-252"/>
<text text-anchor="middle" x="1328.5" y="-237" font-family="sans" font-size="10.00" fill="#000000">junctionseq_qc</text>
<text text-anchor="middle" x="1328.5" y="-226" font-family="sans" font-size="10.00" fill="#000000">name: mix1_2</text>
</g>
<!-- 2&#45;&gt;5 -->
<g id="edge26" class="edge">
<title>2&#45;&gt;5</title>
<path fill="none" stroke="#c0c0c0" stroke-width="2" d="M821.5585,-304.9703C894.8616,-301.836 1098.0605,-290.2978 1273.9299,-252.1068"/>
<polygon fill="#c0c0c0" stroke="#c0c0c0" stroke-width="2" points="1274.8635,-255.4851 1283.8742,-249.9121 1273.3548,-248.6496 1274.8635,-255.4851"/>
</g>
<!-- 6 -->
<g id="node7" class="node">
<title>6</title>
<path fill="none" stroke="#56d87b" stroke-width="2" stroke-dasharray="5,2" d="M1468,-252C1468,-252 1403,-252 1403,-252 1397,-252 1391,-246 1391,-240 1391,-240 1391,-228 1391,-228 1391,-222 1397,-216 1403,-216 1403,-216 1468,-216 1468,-216 1474,-216 1480,-222 1480,-228 1480,-228 1480,-240 1480,-240 1480,-246 1474,-252 1468,-252"/>
<text text-anchor="middle" x="1435.5" y="-237" font-family="sans" font-size="10.00" fill="#000000">junctionseq_qc</text>
<text text-anchor="middle" x="1435.5" y="-226" font-family="sans" font-size="10.00" fill="#000000">name: mix2_2</text>
</g>
<!-- 2&#45;&gt;6 -->
<g id="edge27" class="edge">
<title>2&#45;&gt;6</title>
<path fill="none" stroke="#c0c0c0" stroke-width="2" d="M821.6941,-304.3002C920.893,-298.1859 1254.2171,-276.4745 1380.7197,-252.044"/>
<polygon fill="#c0c0c0" stroke="#c0c0c0" stroke-width="2" points="1381.7858,-255.399 1390.8884,-249.9775 1380.3917,-248.5392 1381.7858,-255.399"/>
</g>
<!-- 7 -->
<g id="node8" class="node">
<title>7</title>
<path fill="none" stroke="#56d87b" stroke-width="2" stroke-dasharray="5,2" d="M1575,-252C1575,-252 1510,-252 1510,-252 1504,-252 1498,-246 1498,-240 1498,-240 1498,-228 1498,-228 1498,-222 1504,-216 1510,-216 1510,-216 1575,-216 1575,-216 1581,-216 1587,-222 1587,-228 1587,-228 1587,-240 1587,-240 1587,-246 1581,-252 1575,-252"/>
<text text-anchor="middle" x="1542.5" y="-237" font-family="sans" font-size="10.00" fill="#000000">junctionseq_qc</text>
<text text-anchor="middle" x="1542.5" y="-226" font-family="sans" font-size="10.00" fill="#000000">name: mix3_2</text>
</g>
<!-- 2&#45;&gt;7 -->
<g id="edge28" class="edge">
<title>2&#45;&gt;7</title>
<path fill="none" stroke="#c0c0c0" stroke-width="2" d="M821.6151,-304.7576C932.386,-299.7213 1339.4494,-279.8445 1488.0695,-251.9579"/>
<polygon fill="#c0c0c0" stroke="#c0c0c0" stroke-width="2" points="1488.7623,-255.3887 1497.8979,-250.023 1487.4102,-248.5206 1488.7623,-255.3887"/>
</g>
<!-- 8 -->
<g id="node9" class="node">
<title>8</title>
<path fill="none" stroke="#56d87b" stroke-width="2" stroke-dasharray="5,2" d="M77,-252C77,-252 12,-252 12,-252 6,-252 0,-246 0,-240 0,-240 0,-228 0,-228 0,-222 6,-216 12,-216 12,-216 77,-216 77,-216 83,-216 89,-222 89,-228 89,-228 89,-240 89,-240 89,-246 83,-252 77,-252"/>
<text text-anchor="middle" x="44.5" y="-237" font-family="sans" font-size="10.00" fill="#000000">junctionseq_qc</text>
<text text-anchor="middle" x="44.5" y="-226" font-family="sans" font-size="10.00" fill="#000000">name: mix1_3</text>
</g>
<!-- 2&#45;&gt;8 -->
<g id="edge29" class="edge">
<title>2&#45;&gt;8</title>
<path fill="none" stroke="#c0c0c0" stroke-width="2" d="M765.3849,-304.7576C654.614,-299.7213 247.5506,-279.8445 98.9305,-251.9579"/>
<polygon fill="#c0c0c0" stroke="#c0c0c0" stroke-width="2" points="99.5898,-248.5206 89.1021,-250.023 98.2377,-255.3887 99.5898,-248.5206"/>
</g>
<!-- 9 -->
<g id="node10" class="node">
<title>9</title>
<path fill="none" stroke="#56d87b" stroke-width="2" stroke-dasharray="5,2" d="M184,-252C184,-252 119,-252 119,-252 113,-252 107,-246 107,-240 107,-240 107,-228 107,-228 107,-222 113,-216 119,-216 119,-216 184,-216 184,-216 190,-216 196,-222 196,-228 196,-228 196,-240 196,-240 196,-246 190,-252 184,-252"/>
<text text-anchor="middle" x="151.5" y="-237" font-family="sans" font-size="10.00" fill="#000000">junctionseq_qc</text>
<text text-anchor="middle" x="151.5" y="-226" font-family="sans" font-size="10.00" fill="#000000">name: mix2_3</text>
</g>
<!-- 2&#45;&gt;9 -->
<g id="edge30" class="edge">
<title>2&#45;&gt;9</title>
<path fill="none" stroke="#c0c0c0" stroke-width="2" d="M765.3059,-304.3002C666.107,-298.1859 332.7829,-276.4745 206.2803,-252.044"/>
<polygon fill="#c0c0c0" stroke="#c0c0c0" stroke-width="2" points="206.6083,-248.5392 196.1116,-249.9775 205.2142,-255.399 206.6083,-248.5392"/>
</g>
<!-- 10 -->
<g id="node11" class="node">
<title>10</title>
<path fill="none" stroke="#56d87b" stroke-width="2" stroke-dasharray="5,2" d="M398,-252C398,-252 333,-252 333,-252 327,-252 321,-246 321,-240 321,-240 321,-228 321,-228 321,-222 327,-216 333,-216 333,-216 398,-216 398,-216 404,-216 410,-222 410,-228 410,-228 410,-240 410,-240 410,-246 404,-252 398,-252"/>
<text text-anchor="middle" x="365.5" y="-237" font-family="sans" font-size="10.00" fill="#000000">junctionseq_qc</text>
<text text-anchor="middle" x="365.5" y="-226" font-family="sans" font-size="10.00" fill="#000000">name: mix3_3</text>
</g>
<!-- 2&#45;&gt;10 -->
<g id="edge31" class="edge">
<title>2&#45;&gt;10</title>
<path fill="none" stroke="#c0c0c0" stroke-width="2" d="M765.4117,-303.7388C704.1008,-298.4259 553.6931,-283.3419 420.1424,-252.18"/>
<polygon fill="#c0c0c0" stroke="#c0c0c0" stroke-width="2" points="420.6872,-248.7122 410.1494,-249.8102 419.0719,-255.5233 420.6872,-248.7122"/>
</g>
<!-- 11 -->
<g id="node12" class="node">
<title>11</title>
<path fill="none" stroke="#56d87b" stroke-width="2" stroke-dasharray="5,2" d="M505,-252C505,-252 440,-252 440,-252 434,-252 428,-246 428,-240 428,-240 428,-228 428,-228 428,-222 434,-216 440,-216 440,-216 505,-216 505,-216 511,-216 517,-222 517,-228 517,-228 517,-240 517,-240 517,-246 511,-252 505,-252"/>
<text text-anchor="middle" x="472.5" y="-237" font-family="sans" font-size="10.00" fill="#000000">junctionseq_qc</text>
<text text-anchor="middle" x="472.5" y="-226" font-family="sans" font-size="10.00" fill="#000000">name: mix1_4</text>
</g>
<!-- 2&#45;&gt;11 -->
<g id="edge32" class="edge">
<title>2&#45;&gt;11</title>
<path fill="none" stroke="#c0c0c0" stroke-width="2" d="M765.1761,-301.444C717.8093,-293.5737 619.4338,-276.1578 526.9552,-251.9502"/>
<polygon fill="#c0c0c0" stroke="#c0c0c0" stroke-width="2" points="527.7246,-248.5333 517.1617,-249.3547 525.9313,-255.2997 527.7246,-248.5333"/>
</g>
<!-- 12 -->
<g id="node13" class="node">
<title>12</title>
<path fill="none" stroke="#56d87b" stroke-width="2" stroke-dasharray="5,2" d="M612,-252C612,-252 547,-252 547,-252 541,-252 535,-246 535,-240 535,-240 535,-228 535,-228 535,-222 541,-216 547,-216 547,-216 612,-216 612,-216 618,-216 624,-222 624,-228 624,-228 624,-240 624,-240 624,-246 618,-252 612,-252"/>
<text text-anchor="middle" x="579.5" y="-237" font-family="sans" font-size="10.00" fill="#000000">junctionseq_qc</text>
<text text-anchor="middle" x="579.5" y="-226" font-family="sans" font-size="10.00" fill="#000000">name: mix2_4</text>
</g>
<!-- 2&#45;&gt;12 -->
<g id="edge33" class="edge">
<title>2&#45;&gt;12</title>
<path fill="none" stroke="#c0c0c0" stroke-width="2" d="M765.0825,-296.439C731.6455,-285.1891 675.391,-266.2624 633.5636,-252.1896"/>
<polygon fill="#c0c0c0" stroke="#c0c0c0" stroke-width="2" points="634.6635,-248.8669 624.0694,-248.9953 632.4312,-255.5015 634.6635,-248.8669"/>
</g>
<!-- 13 -->
<g id="node14" class="node">
<title>13</title>
<path fill="none" stroke="#56d87b" stroke-width="2" stroke-dasharray="5,2" d="M719,-252C719,-252 654,-252 654,-252 648,-252 642,-246 642,-240 642,-240 642,-228 642,-228 642,-222 648,-216 654,-216 654,-216 719,-216 719,-216 725,-216 731,-222 731,-228 731,-228 731,-240 731,-240 731,-246 725,-252 719,-252"/>
<text text-anchor="middle" x="686.5" y="-237" font-family="sans" font-size="10.00" fill="#000000">junctionseq_qc</text>
<text text-anchor="middle" x="686.5" y="-226" font-family="sans" font-size="10.00" fill="#000000">name: mix3_4</text>
</g>
<!-- 2&#45;&gt;13 -->
<g id="edge34" class="edge">
<title>2&#45;&gt;13</title>
<path fill="none" stroke="#c0c0c0" stroke-width="2" d="M766.4994,-287.8314C753.0669,-278.7927 736.6527,-267.7476 722.1961,-258.0198"/>
<polygon fill="#c0c0c0" stroke="#c0c0c0" stroke-width="2" points="723.7425,-254.8418 713.492,-252.1628 719.8346,-260.6494 723.7425,-254.8418"/>
</g>
<!-- 14 -->
<g id="node15" class="node">
<title>14</title>
<path fill="none" stroke="#56d87b" stroke-width="2" stroke-dasharray="5,2" d="M826,-252C826,-252 761,-252 761,-252 755,-252 749,-246 749,-240 749,-240 749,-228 749,-228 749,-222 755,-216 761,-216 761,-216 826,-216 826,-216 832,-216 838,-222 838,-228 838,-228 838,-240 838,-240 838,-246 832,-252 826,-252"/>
<text text-anchor="middle" x="793.5" y="-237" font-family="sans" font-size="10.00" fill="#000000">junctionseq_qc</text>
<text text-anchor="middle" x="793.5" y="-226" font-family="sans" font-size="10.00" fill="#000000">name: mix1_5</text>
</g>
<!-- 2&#45;&gt;14 -->
<g id="edge35" class="edge">
<title>2&#45;&gt;14</title>
<path fill="none" stroke="#c0c0c0" stroke-width="2" d="M793.5,-287.8314C793.5,-280.131 793.5,-270.9743 793.5,-262.4166"/>
<polygon fill="#c0c0c0" stroke="#c0c0c0" stroke-width="2" points="797.0001,-262.4132 793.5,-252.4133 790.0001,-262.4133 797.0001,-262.4132"/>
</g>
<!-- 15 -->
<g id="node16" class="node">
<title>15</title>
<path fill="none" stroke="#56d87b" stroke-width="2" stroke-dasharray="5,2" d="M933,-252C933,-252 868,-252 868,-252 862,-252 856,-246 856,-240 856,-240 856,-228 856,-228 856,-222 862,-216 868,-216 868,-216 933,-216 933,-216 939,-216 945,-222 945,-228 945,-228 945,-240 945,-240 945,-246 939,-252 933,-252"/>
<text text-anchor="middle" x="900.5" y="-237" font-family="sans" font-size="10.00" fill="#000000">junctionseq_qc</text>
<text text-anchor="middle" x="900.5" y="-226" font-family="sans" font-size="10.00" fill="#000000">name: mix2_5</text>
</g>
<!-- 2&#45;&gt;15 -->
<g id="edge36" class="edge">
<title>2&#45;&gt;15</title>
<path fill="none" stroke="#c0c0c0" stroke-width="2" d="M820.5006,-287.8314C833.9331,-278.7927 850.3473,-267.7476 864.8039,-258.0198"/>
<polygon fill="#c0c0c0" stroke="#c0c0c0" stroke-width="2" points="867.1654,-260.6494 873.508,-252.1628 863.2575,-254.8418 867.1654,-260.6494"/>
</g>
<!-- 16 -->
<g id="node17" class="node">
<title>16</title>
<path fill="none" stroke="#56d87b" stroke-width="2" stroke-dasharray="5,2" d="M291,-252C291,-252 226,-252 226,-252 220,-252 214,-246 214,-240 214,-240 214,-228 214,-228 214,-222 220,-216 226,-216 226,-216 291,-216 291,-216 297,-216 303,-222 303,-228 303,-228 303,-240 303,-240 303,-246 297,-252 291,-252"/>
<text text-anchor="middle" x="258.5" y="-237" font-family="sans" font-size="10.00" fill="#000000">junctionseq_qc</text>
<text text-anchor="middle" x="258.5" y="-226" font-family="sans" font-size="10.00" fill="#000000">name: mix3_5</text>
</g>
<!-- 2&#45;&gt;16 -->
<g id="edge37" class="edge">
<title>2&#45;&gt;16</title>
<path fill="none" stroke="#c0c0c0" stroke-width="2" d="M765.4415,-304.9703C692.1384,-301.836 488.9395,-290.2978 313.0701,-252.1068"/>
<polygon fill="#c0c0c0" stroke="#c0c0c0" stroke-width="2" points="313.6452,-248.6496 303.1258,-249.9121 312.1365,-255.4851 313.6452,-248.6496"/>
</g>
<!-- 3&#45;&gt;0 -->
<g id="edge2" class="edge">
<title>3&#45;&gt;0</title>
<path fill="none" stroke="#c0c0c0" stroke-width="2" d="M1102.7347,-215.7903C1083.0985,-185.5656 1042.1778,-123.2857 1005.5,-72 998.9618,-62.8579 991.5971,-53.0231 984.932,-44.2842"/>
<polygon fill="#c0c0c0" stroke="#c0c0c0" stroke-width="2" points="987.6701,-42.1031 978.8059,-36.2999 982.1164,-46.3643 987.6701,-42.1031"/>
</g>
<!-- 3&#45;&gt;20 -->
<g id="edge40" class="edge">
<title>3&#45;&gt;20</title>
<path fill="none" stroke="#c0c0c0" stroke-width="2" d="M1069.9508,-218.1993C1041.1814,-207.9954 1003.3865,-194.5903 971.9252,-183.4316"/>
<polygon fill="#c0c0c0" stroke="#c0c0c0" stroke-width="2" points="972.9764,-180.0909 962.3816,-180.0467 970.6364,-186.6882 972.9764,-180.0909"/>
</g>
<!-- 4&#45;&gt;0 -->
<g id="edge3" class="edge">
<title>4&#45;&gt;0</title>
<path fill="none" stroke="#c0c0c0" stroke-width="2" d="M1248.6979,-215.9112C1292.2544,-184.7907 1368.7628,-119.8551 1327.5,-72 1306.3599,-47.4825 1089.9957,-27.8589 1001.7081,-20.8115"/>
<polygon fill="#c0c0c0" stroke="#c0c0c0" stroke-width="2" points="1001.842,-17.3113 991.598,-20.0149 1001.2921,-24.2897 1001.842,-17.3113"/>
</g>
<!-- 4&#45;&gt;20 -->
<g id="edge41" class="edge">
<title>4&#45;&gt;20</title>
<path fill="none" stroke="#c0c0c0" stroke-width="2" d="M1176.7977,-218.3961C1174.0004,-217.5508 1171.2181,-216.7442 1168.5,-216 1103.9822,-198.3349 1029.0013,-183.181 976.7426,-173.4623"/>
<polygon fill="#c0c0c0" stroke="#c0c0c0" stroke-width="2" points="977.0727,-169.9643 966.6036,-171.5919 975.8027,-176.8481 977.0727,-169.9643"/>
</g>
<!-- 5&#45;&gt;0 -->
<g id="edge4" class="edge">
<title>5&#45;&gt;0</title>
<path fill="none" stroke="#c0c0c0" stroke-width="2" d="M1338.2469,-215.864C1354.4787,-182.9 1381.9431,-112.8058 1346.5,-72 1324.0289,-46.1289 1093.3694,-27.1122 1001.7345,-20.5239"/>
<polygon fill="#c0c0c0" stroke="#c0c0c0" stroke-width="2" points="1001.7478,-17.0161 991.5253,-19.8001 1001.2527,-23.9986 1001.7478,-17.0161"/>
</g>
<!-- 5&#45;&gt;20 -->
<g id="edge42" class="edge">
<title>5&#45;&gt;20</title>
<path fill="none" stroke="#c0c0c0" stroke-width="2" d="M1283.8473,-218.2035C1281.0377,-217.406 1278.2391,-216.6626 1275.5,-216 1172.4563,-191.0739 1050.0532,-175.7728 976.6872,-168.0921"/>
<polygon fill="#c0c0c0" stroke="#c0c0c0" stroke-width="2" points="976.9738,-164.6032 966.6675,-167.0587 976.2556,-171.5662 976.9738,-164.6032"/>
</g>
<!-- 6&#45;&gt;0 -->
<g id="edge5" class="edge">
<title>6&#45;&gt;0</title>
<path fill="none" stroke="#c0c0c0" stroke-width="2" d="M1433.6656,-215.8966C1429.158,-181.6876 1414.2475,-107.7809 1367.5,-72 1338.6908,-49.9492 1096.2701,-28.4908 1001.8913,-20.8932"/>
<polygon fill="#c0c0c0" stroke="#c0c0c0" stroke-width="2" points="1001.9063,-17.3833 991.6597,-20.0772 1001.3498,-24.3612 1001.9063,-17.3833"/>
</g>
<!-- 6&#45;&gt;20 -->
<g id="edge43" class="edge">
<title>6&#45;&gt;20</title>
<path fill="none" stroke="#c0c0c0" stroke-width="2" d="M1390.8723,-218.0963C1388.0565,-217.3254 1385.2497,-216.6171 1382.5,-216 1239.8288,-183.9797 1068.3501,-170.3957 976.7535,-165.0802"/>
<polygon fill="#c0c0c0" stroke="#c0c0c0" stroke-width="2" points="976.7071,-161.5721 966.5254,-164.5019 976.3119,-168.5609 976.7071,-161.5721"/>
</g>
<!-- 7&#45;&gt;0 -->
<g id="edge6" class="edge">
<title>7&#45;&gt;0</title>
<path fill="none" stroke="#c0c0c0" stroke-width="2" d="M1532.2572,-215.806C1511.6296,-181.0996 1461.4551,-105.8847 1396.5,-72 1328.01,-36.2713 1093.4744,-23.1714 1001.7214,-19.3423"/>
<polygon fill="#c0c0c0" stroke="#c0c0c0" stroke-width="2" points="1001.6465,-15.8365 991.5135,-18.9303 1001.3641,-22.8308 1001.6465,-15.8365"/>
</g>
<!-- 7&#45;&gt;20 -->
<g id="edge44" class="edge">
<title>7&#45;&gt;20</title>
<path fill="none" stroke="#c0c0c0" stroke-width="2" d="M1497.8872,-218.0281C1495.0678,-217.2742 1492.256,-216.5882 1489.5,-216 1306.4092,-176.9224 1084.6977,-166.1235 976.8139,-163.1394"/>
<polygon fill="#c0c0c0" stroke="#c0c0c0" stroke-width="2" points="976.8226,-159.6385 966.734,-162.8743 976.6385,-166.6361 976.8226,-159.6385"/>
</g>
<!-- 8&#45;&gt;0 -->
<g id="edge7" class="edge">
<title>8&#45;&gt;0</title>
<path fill="none" stroke="#c0c0c0" stroke-width="2" d="M73.3062,-215.7431C129.8557,-180.9277 260.4462,-105.5326 381.5,-72 485.0579,-43.3139 815.2274,-25.1776 927.0552,-19.732"/>
<polygon fill="#c0c0c0" stroke="#c0c0c0" stroke-width="2" points="927.3605,-23.2214 937.1807,-19.2447 927.024,-16.2295 927.3605,-23.2214"/>
</g>
<!-- 8&#45;&gt;20 -->
<g id="edge45" class="edge">
<title>8&#45;&gt;20</title>
<path fill="none" stroke="#c0c0c0" stroke-width="2" d="M89.0947,-217.9405C91.9186,-217.2083 94.7363,-216.5511 97.5,-216 240.3496,-187.5154 679.1577,-169.9428 846.102,-164.1364"/>
<polygon fill="#c0c0c0" stroke="#c0c0c0" stroke-width="2" points="846.352,-167.6299 856.2253,-163.7871 846.1106,-160.6341 846.352,-167.6299"/>
</g>
<!-- 9&#45;&gt;0 -->
<g id="edge8" class="edge">
<title>9&#45;&gt;0</title>
<path fill="none" stroke="#c0c0c0" stroke-width="2" d="M179.42,-215.9169C234.2372,-181.4025 360.8628,-106.505 478.5,-72 562.7967,-47.2744 828.4293,-27.2343 927.1084,-20.4637"/>
<polygon fill="#c0c0c0" stroke="#c0c0c0" stroke-width="2" points="927.4738,-23.947 937.2134,-19.7768 926.999,-16.9631 927.4738,-23.947"/>
</g>
<!-- 9&#45;&gt;20 -->
<g id="edge46" class="edge">
<title>9&#45;&gt;20</title>
<path fill="none" stroke="#c0c0c0" stroke-width="2" d="M196.1013,-217.9731C198.9236,-217.2328 201.7391,-216.5649 204.5,-216 326.2248,-191.095 695.5741,-171.8908 846.3482,-164.8822"/>
<polygon fill="#c0c0c0" stroke="#c0c0c0" stroke-width="2" points="846.5615,-168.3761 856.3894,-164.4184 846.2385,-161.3836 846.5615,-168.3761"/>
</g>
<!-- 10&#45;&gt;0 -->
<g id="edge9" class="edge">
<title>10&#45;&gt;0</title>
<path fill="none" stroke="#c0c0c0" stroke-width="2" d="M406.718,-215.9461C428.4364,-206.0248 455.3074,-193.0973 478.5,-180 554.494,-137.0849 561.2669,-103.9056 642.5,-72 740.5034,-33.5076 865.8161,-22.4446 927.2083,-19.2716"/>
<polygon fill="#c0c0c0" stroke="#c0c0c0" stroke-width="2" points="927.3812,-22.7674 937.2037,-18.7963 927.0487,-15.7753 927.3812,-22.7674"/>
</g>
<!-- 10&#45;&gt;20 -->
<g id="edge47" class="edge">
<title>10&#45;&gt;20</title>
<path fill="none" stroke="#c0c0c0" stroke-width="2" d="M410.124,-218.0799C412.9407,-217.3131 415.7488,-216.6102 418.5,-216 569.3543,-182.5432 750.9791,-169.457 846.0989,-164.6227"/>
<polygon fill="#c0c0c0" stroke="#c0c0c0" stroke-width="2" points="846.3312,-168.1156 856.1464,-164.1265 845.9859,-161.1241 846.3312,-168.1156"/>
</g>
<!-- 11&#45;&gt;0 -->
<g id="edge10" class="edge">
<title>11&#45;&gt;0</title>
<path fill="none" stroke="#c0c0c0" stroke-width="2" d="M496.0619,-215.7915C545.8183,-177.6491 660.7004,-91.2878 705.5,-72 780.294,-39.7985 875.7084,-26.2998 927.3125,-21.0431"/>
<polygon fill="#c0c0c0" stroke="#c0c0c0" stroke-width="2" points="927.7181,-24.5203 937.3332,-20.0706 927.0419,-17.553 927.7181,-24.5203"/>
</g>
<!-- 11&#45;&gt;20 -->
<g id="edge48" class="edge">
<title>11&#45;&gt;20</title>
<path fill="none" stroke="#c0c0c0" stroke-width="2" d="M517.1085,-218.4332C520.2687,-217.5458 523.4214,-216.7226 526.5,-216 637.3353,-189.9843 769.2574,-174.8081 846.3604,-167.4818"/>
<polygon fill="#c0c0c0" stroke="#c0c0c0" stroke-width="2" points="846.7766,-170.9582 856.4073,-166.5422 846.1248,-163.9887 846.7766,-170.9582"/>
</g>
<!-- 12&#45;&gt;0 -->
<g id="edge11" class="edge">
<title>12&#45;&gt;0</title>
<path fill="none" stroke="#c0c0c0" stroke-width="2" d="M594.5272,-215.9035C623.3642,-182.3677 689.9785,-110.4853 761.5,-72 815.0861,-43.1656 885.0597,-28.9783 927.2929,-22.5941"/>
<polygon fill="#c0c0c0" stroke="#c0c0c0" stroke-width="2" points="928.0079,-26.0273 937.4056,-21.135 927.0082,-19.099 928.0079,-26.0273"/>
</g>
<!-- 12&#45;&gt;20 -->
<g id="edge49" class="edge">
<title>12&#45;&gt;20</title>
<path fill="none" stroke="#c0c0c0" stroke-width="2" d="M624.1545,-218.6183C627.3037,-217.6868 630.4414,-216.8032 633.5,-216 705.6128,-197.0631 789.8403,-181.613 846.5259,-172.1636"/>
<polygon fill="#c0c0c0" stroke="#c0c0c0" stroke-width="2" points="847.1343,-175.6106 856.4299,-170.5269 845.993,-168.7042 847.1343,-175.6106"/>
</g>
<!-- 13&#45;&gt;0 -->
<g id="edge12" class="edge">
<title>13&#45;&gt;0</title>
<path fill="none" stroke="#c0c0c0" stroke-width="2" d="M694.7284,-215.8196C710.727,-182.4667 749.1917,-111.3241 802.5,-72 839.9041,-44.408 892.2544,-30.3586 927.215,-23.6129"/>
<polygon fill="#c0c0c0" stroke="#c0c0c0" stroke-width="2" points="928.2588,-26.9805 937.4708,-21.747 927.0058,-20.0936 928.2588,-26.9805"/>
</g>
<!-- 13&#45;&gt;20 -->
<g id="edge50" class="edge">
<title>13&#45;&gt;20</title>
<path fill="none" stroke="#c0c0c0" stroke-width="2" d="M731.2711,-219.0156C734.3925,-217.9895 737.4922,-216.9762 740.5,-216 775.521,-204.6343 814.6793,-192.2452 846.6781,-182.204"/>
<polygon fill="#c0c0c0" stroke="#c0c0c0" stroke-width="2" points="847.8712,-185.498 856.3664,-179.1668 845.7773,-178.8185 847.8712,-185.498"/>
</g>
<!-- 14&#45;&gt;0 -->
<g id="edge13" class="edge">
<title>14&#45;&gt;0</title>
<path fill="none" stroke="#c0c0c0" stroke-width="2" d="M792.1029,-215.827C790.6017,-183.1133 792.1858,-113.8326 827.5,-72 852.5399,-42.3381 896.0707,-28.8656 927.3496,-22.8128"/>
<polygon fill="#c0c0c0" stroke="#c0c0c0" stroke-width="2" points="928.2034,-26.2163 937.4431,-21.0319 926.9871,-19.3228 928.2034,-26.2163"/>
</g>
<!-- 14&#45;&gt;20 -->
<g id="edge51" class="edge">
<title>14&#45;&gt;20</title>
<path fill="none" stroke="#c0c0c0" stroke-width="2" d="M823.2764,-215.8314C838.3693,-206.6221 856.8757,-195.3301 873.0343,-185.4706"/>
<polygon fill="#c0c0c0" stroke="#c0c0c0" stroke-width="2" points="875.0198,-188.3593 881.7331,-180.1628 871.3737,-182.3838 875.0198,-188.3593"/>
</g>
<!-- 15&#45;&gt;0 -->
<g id="edge14" class="edge">
<title>15&#45;&gt;0</title>
<path fill="none" stroke="#c0c0c0" stroke-width="2" d="M875.4572,-215.8695C864.688,-206.5148 853.2654,-194.105 847.5,-180 829.3386,-135.5684 821.6302,-112.4321 847.5,-72 864.9804,-44.6797 900.1861,-30.9846 927.4343,-24.2445"/>
<polygon fill="#c0c0c0" stroke="#c0c0c0" stroke-width="2" points="928.45,-27.6034 937.4342,-21.9879 926.909,-20.7751 928.45,-27.6034"/>
</g>
<!-- 15&#45;&gt;20 -->
<g id="edge52" class="edge">
<title>15&#45;&gt;20</title>
<path fill="none" stroke="#c0c0c0" stroke-width="2" d="M903.2758,-215.8314C904.4522,-208.131 905.8511,-198.9743 907.1586,-190.4166"/>
<polygon fill="#c0c0c0" stroke="#c0c0c0" stroke-width="2" points="910.6364,-190.8272 908.6869,-180.4133 903.7167,-189.7699 910.6364,-190.8272"/>
</g>
<!-- 16&#45;&gt;0 -->
<g id="edge15" class="edge">
<title>16&#45;&gt;0</title>
<path fill="none" stroke="#c0c0c0" stroke-width="2" d="M285.6832,-215.8877C338.4781,-181.6635 459.6319,-107.732 572.5,-72 698.3391,-32.1616 856.0993,-21.7051 926.9795,-18.9673"/>
<polygon fill="#c0c0c0" stroke="#c0c0c0" stroke-width="2" points="927.3233,-22.4573 937.1924,-18.6037 927.0742,-15.4618 927.3233,-22.4573"/>
</g>
<!-- 16&#45;&gt;20 -->
<g id="edge53" class="edge">
<title>16&#45;&gt;20</title>
<path fill="none" stroke="#c0c0c0" stroke-width="2" d="M303.1104,-218.0171C305.9305,-217.2659 308.743,-216.5835 311.5,-216 412.2201,-194.6818 712.8693,-174.2164 846.3793,-165.8998"/>
<polygon fill="#c0c0c0" stroke="#c0c0c0" stroke-width="2" points="846.7028,-169.3865 856.4671,-165.2747 846.2698,-162.3999 846.7028,-169.3865"/>
</g>
<!-- 17 -->
<g id="node18" class="node">
<title>17</title>
<path fill="none" stroke="#d85656" stroke-width="2" stroke-dasharray="5,2" d="M1684,-324C1684,-324 1555,-324 1555,-324 1549,-324 1543,-318 1543,-312 1543,-312 1543,-300 1543,-300 1543,-294 1549,-288 1555,-288 1555,-288 1684,-288 1684,-288 1690,-288 1696,-294 1696,-300 1696,-300 1696,-312 1696,-312 1696,-318 1690,-324 1684,-324"/>
<text text-anchor="middle" x="1619.5" y="-309" font-family="sans" font-size="10.00" fill="#000000">junctionseq_create_decoder</text>
<text text-anchor="middle" x="1619.5" y="-298" font-family="sans" font-size="10.00" fill="#000000">comparison: mix2&#45;vs&#45;mix1</text>
</g>
<!-- 17&#45;&gt;0 -->
<g id="edge16" class="edge">
<title>17&#45;&gt;0</title>
<path fill="none" stroke="#c0c0c0" stroke-width="2" d="M1623.9965,-287.7062C1627.6639,-268.7408 1630.6168,-238.7407 1619.5,-216 1573.7395,-122.3919 1530.9532,-111.4115 1434.5,-72 1356.0856,-39.9593 1098.9068,-24.494 1001.9433,-19.6944"/>
<polygon fill="#c0c0c0" stroke="#c0c0c0" stroke-width="2" points="1001.8897,-16.1878 991.7319,-19.1993 1001.5507,-23.1796 1001.8897,-16.1878"/>
</g>
<!-- 21 -->
<g id="node22" class="node">
<title>21</title>
<path fill="none" stroke="#78d856" stroke-width="2" stroke-dasharray="5,2" d="M1807,-252C1807,-252 1694,-252 1694,-252 1688,-252 1682,-246 1682,-240 1682,-240 1682,-228 1682,-228 1682,-222 1688,-216 1694,-216 1694,-216 1807,-216 1807,-216 1813,-216 1819,-222 1819,-228 1819,-228 1819,-240 1819,-240 1819,-246 1813,-252 1807,-252"/>
<text text-anchor="middle" x="1750.5" y="-231.5" font-family="sans" font-size="10.00" fill="#000000">junctionseq_cat_decoder</text>
</g>
<!-- 17&#45;&gt;21 -->
<g id="edge54" class="edge">
<title>17&#45;&gt;21</title>
<path fill="none" stroke="#c0c0c0" stroke-width="2" d="M1652.5568,-287.8314C1669.4677,-278.5368 1690.2385,-267.1208 1708.2941,-257.1971"/>
<polygon fill="#c0c0c0" stroke="#c0c0c0" stroke-width="2" points="1710.376,-260.0468 1717.4537,-252.1628 1707.0043,-253.9122 1710.376,-260.0468"/>
</g>
<!-- 22 -->
<g id="node23" class="node">
<title>22</title>
<path fill="none" stroke="#56a2d8" stroke-width="2" stroke-dasharray="5,2" d="M967,-108C967,-108 878,-108 878,-108 872,-108 866,-102 866,-96 866,-96 866,-84 866,-84 866,-78 872,-72 878,-72 878,-72 967,-72 967,-72 973,-72 979,-78 979,-84 979,-84 979,-96 979,-96 979,-102 973,-108 967,-108"/>
<text text-anchor="middle" x="922.5" y="-87.5" font-family="sans" font-size="10.00" fill="#000000">junctioseq_analysis</text>
</g>
<!-- 17&#45;&gt;22 -->
<g id="edge58" class="edge">
<title>17&#45;&gt;22</title>
<path fill="none" stroke="#c0c0c0" stroke-width="2" d="M1620.2249,-287.9729C1620,-267.4934 1616.2741,-234.5216 1596.5,-216 1552.2126,-174.5179 1150.9035,-119.1835 989.387,-98.3782"/>
<polygon fill="#c0c0c0" stroke="#c0c0c0" stroke-width="2" points="989.4655,-94.8596 979.1013,-97.0582 988.5744,-101.8027 989.4655,-94.8596"/>
</g>
<!-- 18 -->
<g id="node19" class="node">
<title>18</title>
<path fill="none" stroke="#d85656" stroke-width="2" stroke-dasharray="5,2" d="M1855,-324C1855,-324 1726,-324 1726,-324 1720,-324 1714,-318 1714,-312 1714,-312 1714,-300 1714,-300 1714,-294 1720,-288 1726,-288 1726,-288 1855,-288 1855,-288 1861,-288 1867,-294 1867,-300 1867,-300 1867,-312 1867,-312 1867,-318 1861,-324 1855,-324"/>
<text text-anchor="middle" x="1790.5" y="-309" font-family="sans" font-size="10.00" fill="#000000">junctionseq_create_decoder</text>
<text text-anchor="middle" x="1790.5" y="-298" font-family="sans" font-size="10.00" fill="#000000">comparison: mix3&#45;vs&#45;mix1</text>
</g>
<!-- 18&#45;&gt;0 -->
<g id="edge17" class="edge">
<title>18&#45;&gt;0</title>
<path fill="none" stroke="#c0c0c0" stroke-width="2" d="M1816.7563,-287.8151C1827.8422,-278.5285 1839.5458,-266.1902 1845.5,-252 1851.6907,-237.2462 1854.4444,-229.2664 1845.5,-216 1750.0877,-74.484 1655.1436,-113.1395 1489.5,-72 1396.5422,-48.9129 1105.2613,-27.5192 1001.5896,-20.4513"/>
<polygon fill="#c0c0c0" stroke="#c0c0c0" stroke-width="2" points="1001.8013,-16.9577 991.5877,-19.7743 1001.3285,-23.9417 1001.8013,-16.9577"/>
</g>
<!-- 18&#45;&gt;21 -->
<g id="edge55" class="edge">
<title>18&#45;&gt;21</title>
<path fill="none" stroke="#c0c0c0" stroke-width="2" d="M1780.4063,-287.8314C1775.9403,-279.7925 1770.5925,-270.1666 1765.6621,-261.2918"/>
<polygon fill="#c0c0c0" stroke="#c0c0c0" stroke-width="2" points="1768.6456,-259.4551 1760.7296,-252.4133 1762.5265,-262.8546 1768.6456,-259.4551"/>
</g>
<!-- 23 -->
<g id="node24" class="node">
<title>23</title>
<path fill="none" stroke="#56a2d8" stroke-width="2" stroke-dasharray="5,2" d="M1175,-108C1175,-108 1086,-108 1086,-108 1080,-108 1074,-102 1074,-96 1074,-96 1074,-84 1074,-84 1074,-78 1080,-72 1086,-72 1086,-72 1175,-72 1175,-72 1181,-72 1187,-78 1187,-84 1187,-84 1187,-96 1187,-96 1187,-102 1181,-108 1175,-108"/>
<text text-anchor="middle" x="1130.5" y="-87.5" font-family="sans" font-size="10.00" fill="#000000">junctioseq_analysis</text>
</g>
<!-- 18&#45;&gt;23 -->
<g id="edge60" class="edge">
<title>18&#45;&gt;23</title>
<path fill="none" stroke="#c0c0c0" stroke-width="2" d="M1808.3745,-287.942C1825.2943,-268.6266 1845.7376,-237.8304 1828.5,-216 1785.7447,-161.8531 1744.2033,-197.623 1677.5,-180 1622.017,-165.3414 1609.8374,-154.9241 1553.5,-144 1400.1553,-114.2658 1355.1353,-136.141 1197.3074,-107.9544"/>
<polygon fill="#c0c0c0" stroke="#c0c0c0" stroke-width="2" points="1197.7096,-104.47 1187.2436,-106.1171 1196.4524,-111.3562 1197.7096,-104.47"/>
</g>
<!-- 19 -->
<g id="node20" class="node">
<title>19</title>
<path fill="none" stroke="#d85656" stroke-width="2" stroke-dasharray="5,2" d="M2026,-324C2026,-324 1897,-324 1897,-324 1891,-324 1885,-318 1885,-312 1885,-312 1885,-300 1885,-300 1885,-294 1891,-288 1897,-288 1897,-288 2026,-288 2026,-288 2032,-288 2038,-294 2038,-300 2038,-300 2038,-312 2038,-312 2038,-318 2032,-324 2026,-324"/>
<text text-anchor="middle" x="1961.5" y="-309" font-family="sans" font-size="10.00" fill="#000000">junctionseq_create_decoder</text>
<text text-anchor="middle" x="1961.5" y="-298" font-family="sans" font-size="10.00" fill="#000000">comparison: mix3&#45;vs&#45;mix2</text>
</g>
<!-- 19&#45;&gt;0 -->
<g id="edge18" class="edge">
<title>19&#45;&gt;0</title>
<path fill="none" stroke="#c0c0c0" stroke-width="2" d="M1949.5284,-287.9965C1926.6703,-254.9349 1873.6101,-184.2533 1812.5,-144 1731.8559,-90.8797 1701.9302,-92.2034 1607.5,-72 1490.397,-46.9458 1120.4178,-26.0761 1001.6151,-19.8761"/>
<polygon fill="#c0c0c0" stroke="#c0c0c0" stroke-width="2" points="1001.7263,-16.3773 991.5586,-19.3551 1001.3641,-23.3679 1001.7263,-16.3773"/>
</g>
<!-- 19&#45;&gt;21 -->
<g id="edge56" class="edge">
<title>19&#45;&gt;21</title>
<path fill="none" stroke="#c0c0c0" stroke-width="2" d="M1908.5281,-287.9243C1879.5578,-278.0387 1843.4927,-265.7321 1813.1337,-255.3726"/>
<polygon fill="#c0c0c0" stroke="#c0c0c0" stroke-width="2" points="1814.0882,-252.0002 1803.4937,-252.0831 1811.8275,-258.6251 1814.0882,-252.0002"/>
</g>
<!-- 24 -->
<g id="node25" class="node">
<title>24</title>
<path fill="none" stroke="#56a2d8" stroke-width="2" stroke-dasharray="5,2" d="M1306,-108C1306,-108 1217,-108 1217,-108 1211,-108 1205,-102 1205,-96 1205,-96 1205,-84 1205,-84 1205,-78 1211,-72 1217,-72 1217,-72 1306,-72 1306,-72 1312,-72 1318,-78 1318,-84 1318,-84 1318,-96 1318,-96 1318,-102 1312,-108 1306,-108"/>
<text text-anchor="middle" x="1261.5" y="-87.5" font-family="sans" font-size="10.00" fill="#000000">junctioseq_analysis</text>
</g>
<!-- 19&#45;&gt;24 -->
<g id="edge62" class="edge">
<title>19&#45;&gt;24</title>
<path fill="none" stroke="#c0c0c0" stroke-width="2" d="M1942.4064,-287.8451C1920.5138,-267.865 1882.8179,-235.9432 1845.5,-216 1674.292,-124.5038 1441.2809,-99.4455 1328.3407,-92.5849"/>
<polygon fill="#c0c0c0" stroke="#c0c0c0" stroke-width="2" points="1328.3051,-89.0771 1318.1198,-91.9941 1327.9011,-96.0654 1328.3051,-89.0771"/>
</g>
<!-- 20&#45;&gt;0 -->
<g id="edge19" class="edge">
<title>20&#45;&gt;0</title>
<path fill="none" stroke="#c0c0c0" stroke-width="2" d="M885.9948,-143.9627C875.0247,-134.6284 863.3855,-122.2089 857.5,-108 851.3771,-93.2179 849.1137,-85.6261 857.5,-72 872.6454,-47.3917 902.8445,-33.5914 927.309,-26.1144"/>
<polygon fill="#c0c0c0" stroke="#c0c0c0" stroke-width="2" points="928.3642,-29.4535 937.04,-23.3724 926.4656,-22.7159 928.3642,-29.4535"/>
</g>
<!-- 20&#45;&gt;22 -->
<g id="edge57" class="edge">
<title>20&#45;&gt;22</title>
<path fill="none" stroke="#c0c0c0" stroke-width="2" d="M914.2758,-143.8314C915.4522,-136.131 916.8511,-126.9743 918.1586,-118.4166"/>
<polygon fill="#c0c0c0" stroke="#c0c0c0" stroke-width="2" points="921.6364,-118.8272 919.6869,-108.4133 914.7167,-117.7699 921.6364,-118.8272"/>
</g>
<!-- 20&#45;&gt;23 -->
<g id="edge59" class="edge">
<title>20&#45;&gt;23</title>
<path fill="none" stroke="#c0c0c0" stroke-width="2" d="M966.4803,-143.9243C996.6792,-133.9959 1034.3058,-121.6255 1065.9004,-111.2382"/>
<polygon fill="#c0c0c0" stroke="#c0c0c0" stroke-width="2" points="1067.0905,-114.5313 1075.4971,-108.0831 1064.9042,-107.8815 1067.0905,-114.5313"/>
</g>
<!-- 20&#45;&gt;24 -->
<g id="edge61" class="edge">
<title>20&#45;&gt;24</title>
<path fill="none" stroke="#c0c0c0" stroke-width="2" d="M966.6857,-152.9407C1022.1681,-143.5189 1110.3213,-127.6965 1195.0693,-108.2497"/>
<polygon fill="#c0c0c0" stroke="#c0c0c0" stroke-width="2" points="1195.8976,-111.6506 1204.8506,-105.9853 1194.3188,-104.8309 1195.8976,-111.6506"/>
</g>
<!-- 21&#45;&gt;20 -->
<g id="edge38" class="edge">
<title>21&#45;&gt;20</title>
<path fill="none" stroke="#c0c0c0" stroke-width="2" d="M1681.9475,-225.4267C1655.2966,-222.2408 1624.4958,-218.7386 1596.5,-216 1369.2339,-193.7683 1098.8471,-174.5915 976.8927,-166.3311"/>
<polygon fill="#c0c0c0" stroke="#c0c0c0" stroke-width="2" points="976.8255,-162.8187 966.6124,-165.6369 976.3538,-169.8028 976.8255,-162.8187"/>
</g>
<!-- 22&#45;&gt;0 -->
<g id="edge20" class="edge">
<title>22&#45;&gt;0</title>
<path fill="none" stroke="#c0c0c0" stroke-width="2" d="M933.0984,-71.8314C937.7877,-63.7925 943.4028,-54.1666 948.5798,-45.2918"/>
<polygon fill="#c0c0c0" stroke="#c0c0c0" stroke-width="2" points="951.7434,-46.8146 953.7589,-36.4133 945.6969,-43.2875 951.7434,-46.8146"/>
</g>
<!-- 23&#45;&gt;0 -->
<g id="edge21" class="edge">
<title>23&#45;&gt;0</title>
<path fill="none" stroke="#c0c0c0" stroke-width="2" d="M1088.6112,-71.8314C1061.6985,-60.1584 1027.0708,-45.1391 1001.2331,-33.9324"/>
<polygon fill="#c0c0c0" stroke="#c0c0c0" stroke-width="2" points="1002.3622,-30.6072 991.7953,-29.8389 999.5768,-37.0291 1002.3622,-30.6072"/>
</g>
<!-- 24&#45;&gt;0 -->
<g id="edge22" class="edge">
<title>24&#45;&gt;0</title>
<path fill="none" stroke="#c0c0c0" stroke-width="2" d="M1204.8166,-74.1541C1202.0073,-73.4155 1199.2233,-72.6937 1196.5,-72 1127.9471,-54.5379 1047.4201,-36.3012 1001.5309,-26.122"/>
<polygon fill="#c0c0c0" stroke="#c0c0c0" stroke-width="2" points="1002.2536,-22.6973 991.7337,-23.9545 1000.7415,-29.532 1002.2536,-22.6973"/>
</g>
</g>
</svg>
