<?xml version="1.0" encoding="UTF-8" standalone="no"?>
<!DOCTYPE svg PUBLIC "-//W3C//DTD SVG 1.1//EN"
 "http://www.w3.org/Graphics/SVG/1.1/DTD/svg11.dtd">
<!-- Generated by graphviz version 2.40.1 (20161225.0304)
 -->
<!-- Title: snakemake_dag Pages: 1 -->
<svg width="635pt" height="404pt"
 viewBox="0.00 0.00 634.77 404.00" xmlns="http://www.w3.org/2000/svg" xmlns:xlink="http://www.w3.org/1999/xlink">
<g id="graph0" class="graph" transform="scale(1 1) rotate(0) translate(4 400)">
<title>snakemake_dag</title>
<polygon fill="#ffffff" stroke="transparent" points="-4,4 -4,-400 630.7689,-400 630.7689,4 -4,4"/>
<!-- 0 -->
<g id="node1" class="node">
<title>0</title>
<path fill="none" stroke="#d8a456" stroke-width="2" stroke-dasharray="5,2" d="M250,-36C250,-36 220,-36 220,-36 214,-36 208,-30 208,-24 208,-24 208,-12 208,-12 208,-6 214,0 220,0 220,0 250,0 250,0 256,0 262,-6 262,-12 262,-12 262,-24 262,-24 262,-30 256,-36 250,-36"/>
<text text-anchor="middle" x="235" y="-15.5" font-family="sans" font-size="10.00" fill="#000000">all</text>
</g>
<!-- 1 -->
<g id="node2" class="node">
<title>1</title>
<path fill="none" stroke="#78d856" stroke-width="2" stroke-dasharray="5,2" d="M54,-396C54,-396 22,-396 22,-396 16,-396 10,-390 10,-384 10,-384 10,-372 10,-372 10,-366 16,-360 22,-360 22,-360 54,-360 54,-360 60,-360 66,-366 66,-372 66,-372 66,-384 66,-384 66,-390 60,-396 54,-396"/>
<text text-anchor="middle" x="38" y="-375.5" font-family="sans" font-size="10.00" fill="#000000">symlink</text>
</g>
<!-- 1&#45;&gt;0 -->
<g id="edge1" class="edge">
<title>1&#45;&gt;0</title>
<path fill="none" stroke="#c0c0c0" stroke-width="2" d="M29.9412,-359.7668C18.7866,-332.8248 0,-280.5405 0,-234 0,-234 0,-234 0,-162 0,-70.4804 131.1809,-35.3333 197.522,-23.4103"/>
<polygon fill="#c0c0c0" stroke="#c0c0c0" stroke-width="2" points="198.3151,-26.8256 207.5826,-21.6911 197.1359,-19.9256 198.3151,-26.8256"/>
</g>
<!-- 2 -->
<g id="node3" class="node">
<title>2</title>
<path fill="none" stroke="#56d87b" stroke-width="2" stroke-dasharray="5,2" d="M114,-324C114,-324 40,-324 40,-324 34,-324 28,-318 28,-312 28,-312 28,-300 28,-300 28,-294 34,-288 40,-288 40,-288 114,-288 114,-288 120,-288 126,-294 126,-300 126,-300 126,-312 126,-312 126,-318 120,-324 114,-324"/>
<text text-anchor="middle" x="77" y="-303.5" font-family="sans" font-size="10.00" fill="#000000">majiq_create_ini</text>
</g>
<!-- 1&#45;&gt;2 -->
<g id="edge10" class="edge">
<title>1&#45;&gt;2</title>
<path fill="none" stroke="#c0c0c0" stroke-width="2" d="M47.8413,-359.8314C52.1957,-351.7925 57.4098,-342.1666 62.2169,-333.2918"/>
<polygon fill="#c0c0c0" stroke="#c0c0c0" stroke-width="2" points="65.3408,-334.8732 67.0261,-324.4133 59.1857,-331.5392 65.3408,-334.8732"/>
</g>
<!-- 2&#45;&gt;0 -->
<g id="edge2" class="edge">
<title>2&#45;&gt;0</title>
<path fill="none" stroke="#c0c0c0" stroke-width="2" d="M72.4861,-287.6911C62.95,-244.1873 45.8929,-133.6606 101,-72 125.9683,-44.0624 167.4263,-30.3422 197.627,-23.7598"/>
<polygon fill="#c0c0c0" stroke="#c0c0c0" stroke-width="2" points="198.6794,-27.1184 207.7943,-21.7176 197.3009,-20.2555 198.6794,-27.1184"/>
</g>
<!-- 3 -->
<g id="node4" class="node">
<title>3</title>
<path fill="none" stroke="#56d8c9" stroke-width="2" stroke-dasharray="5,2" d="M336,-252C336,-252 286,-252 286,-252 280,-252 274,-246 274,-240 274,-240 274,-228 274,-228 274,-222 280,-216 286,-216 286,-216 336,-216 336,-216 342,-216 348,-222 348,-228 348,-228 348,-240 348,-240 348,-246 342,-252 336,-252"/>
<text text-anchor="middle" x="311" y="-231.5" font-family="sans" font-size="10.00" fill="#000000">majiq_build</text>
</g>
<!-- 2&#45;&gt;3 -->
<g id="edge11" class="edge">
<title>2&#45;&gt;3</title>
<path fill="none" stroke="#c0c0c0" stroke-width="2" d="M126.0541,-290.9064C166.7008,-278.3998 224.0906,-260.7414 264.1237,-248.4235"/>
<polygon fill="#c0c0c0" stroke="#c0c0c0" stroke-width="2" points="265.3784,-251.6994 273.9069,-245.4133 263.3197,-245.009 265.3784,-251.6994"/>
</g>
<!-- 3&#45;&gt;0 -->
<g id="edge3" class="edge">
<title>3&#45;&gt;0</title>
<path fill="none" stroke="#c0c0c0" stroke-width="2" d="M273.6351,-230.1319C217.7899,-223.4931 116.7662,-207.8777 95,-180 52.7227,-125.8523 144.4474,-65.4573 198.7326,-36.0542"/>
<polygon fill="#c0c0c0" stroke="#c0c0c0" stroke-width="2" points="200.5536,-39.0501 207.7449,-31.2696 197.2712,-32.8674 200.5536,-39.0501"/>
</g>
<!-- 5 -->
<g id="node6" class="node">
<title>5</title>
<path fill="none" stroke="#c6d856" stroke-width="2" stroke-dasharray="5,2" d="M223.5,-180C223.5,-180 116.5,-180 116.5,-180 110.5,-180 104.5,-174 104.5,-168 104.5,-168 104.5,-156 104.5,-156 104.5,-150 110.5,-144 116.5,-144 116.5,-144 223.5,-144 223.5,-144 229.5,-144 235.5,-150 235.5,-156 235.5,-156 235.5,-168 235.5,-168 235.5,-174 229.5,-180 223.5,-180"/>
<text text-anchor="middle" x="170" y="-165" font-family="sans" font-size="10.00" fill="#000000">majiq_deltapsi</text>
<text text-anchor="middle" x="170" y="-154" font-family="sans" font-size="10.00" fill="#000000">contrast: mix2&#45;vs&#45;mix1</text>
</g>
<!-- 3&#45;&gt;5 -->
<g id="edge13" class="edge">
<title>3&#45;&gt;5</title>
<path fill="none" stroke="#c0c0c0" stroke-width="2" d="M275.4197,-215.8314C256.9675,-206.4089 234.2455,-194.8062 214.627,-184.7883"/>
<polygon fill="#c0c0c0" stroke="#c0c0c0" stroke-width="2" points="216.0667,-181.5935 205.5689,-180.1628 212.8832,-187.8278 216.0667,-181.5935"/>
</g>
<!-- 6 -->
<g id="node7" class="node">
<title>6</title>
<path fill="none" stroke="#c6d856" stroke-width="2" stroke-dasharray="5,2" d="M411.5,-180C411.5,-180 304.5,-180 304.5,-180 298.5,-180 292.5,-174 292.5,-168 292.5,-168 292.5,-156 292.5,-156 292.5,-150 298.5,-144 304.5,-144 304.5,-144 411.5,-144 411.5,-144 417.5,-144 423.5,-150 423.5,-156 423.5,-156 423.5,-168 423.5,-168 423.5,-174 417.5,-180 411.5,-180"/>
<text text-anchor="middle" x="358" y="-165" font-family="sans" font-size="10.00" fill="#000000">majiq_deltapsi</text>
<text text-anchor="middle" x="358" y="-154" font-family="sans" font-size="10.00" fill="#000000">contrast: mix3&#45;vs&#45;mix1</text>
</g>
<!-- 3&#45;&gt;6 -->
<g id="edge14" class="edge">
<title>3&#45;&gt;6</title>
<path fill="none" stroke="#c0c0c0" stroke-width="2" d="M322.8601,-215.8314C328.1629,-207.7079 334.5237,-197.9637 340.3673,-189.0118"/>
<polygon fill="#c0c0c0" stroke="#c0c0c0" stroke-width="2" points="343.4448,-190.7003 345.9802,-180.4133 337.5831,-186.8739 343.4448,-190.7003"/>
</g>
<!-- 7 -->
<g id="node8" class="node">
<title>7</title>
<path fill="none" stroke="#c6d856" stroke-width="2" stroke-dasharray="5,2" d="M599.5,-180C599.5,-180 492.5,-180 492.5,-180 486.5,-180 480.5,-174 480.5,-168 480.5,-168 480.5,-156 480.5,-156 480.5,-150 486.5,-144 492.5,-144 492.5,-144 599.5,-144 599.5,-144 605.5,-144 611.5,-150 611.5,-156 611.5,-156 611.5,-168 611.5,-168 611.5,-174 605.5,-180 599.5,-180"/>
<text text-anchor="middle" x="546" y="-165" font-family="sans" font-size="10.00" fill="#000000">majiq_deltapsi</text>
<text text-anchor="middle" x="546" y="-154" font-family="sans" font-size="10.00" fill="#000000">contrast: mix3&#45;vs&#45;mix2</text>
</g>
<!-- 3&#45;&gt;7 -->
<g id="edge15" class="edge">
<title>3&#45;&gt;7</title>
<path fill="none" stroke="#c0c0c0" stroke-width="2" d="M348.2364,-222.5914C382.8162,-211.9967 435.1615,-195.959 477.3135,-183.0444"/>
<polygon fill="#c0c0c0" stroke="#c0c0c0" stroke-width="2" points="478.429,-186.3633 486.965,-180.0873 476.3784,-179.6703 478.429,-186.3633"/>
</g>
<!-- 8 -->
<g id="node9" class="node">
<title>8</title>
<path fill="none" stroke="#d85656" stroke-width="2" stroke-dasharray="5,2" d="M260,-108C260,-108 210,-108 210,-108 204,-108 198,-102 198,-96 198,-96 198,-84 198,-84 198,-78 204,-72 210,-72 210,-72 260,-72 260,-72 266,-72 272,-78 272,-84 272,-84 272,-96 272,-96 272,-102 266,-108 260,-108"/>
<text text-anchor="middle" x="235" y="-87.5" font-family="sans" font-size="10.00" fill="#000000">majiq_voila</text>
</g>
<!-- 3&#45;&gt;8 -->
<g id="edge16" class="edge">
<title>3&#45;&gt;8</title>
<path fill="none" stroke="#c0c0c0" stroke-width="2" d="M301.3745,-215.7623C288.2403,-190.8764 264.599,-146.0822 249.3642,-117.2165"/>
<polygon fill="#c0c0c0" stroke="#c0c0c0" stroke-width="2" points="252.3103,-115.2998 244.5473,-108.0896 246.1196,-118.5671 252.3103,-115.2998"/>
</g>
<!-- 9 -->
<g id="node10" class="node">
<title>9</title>
<path fill="none" stroke="#d85656" stroke-width="2" stroke-dasharray="5,2" d="M390,-108C390,-108 340,-108 340,-108 334,-108 328,-102 328,-96 328,-96 328,-84 328,-84 328,-78 334,-72 340,-72 340,-72 390,-72 390,-72 396,-72 402,-78 402,-84 402,-84 402,-96 402,-96 402,-102 396,-108 390,-108"/>
<text text-anchor="middle" x="365" y="-87.5" font-family="sans" font-size="10.00" fill="#000000">majiq_voila</text>
</g>
<!-- 3&#45;&gt;9 -->
<g id="edge18" class="edge">
<title>3&#45;&gt;9</title>
<path fill="none" stroke="#c0c0c0" stroke-width="2" d="M348.1183,-228.3963C376.43,-221.9627 413.595,-208.3684 432,-180 440.7083,-166.5774 438.9048,-158.4334 432,-144 426.404,-132.3025 416.9007,-122.3295 406.7828,-114.2563"/>
<polygon fill="#c0c0c0" stroke="#c0c0c0" stroke-width="2" points="408.718,-111.3341 398.5997,-108.1924 404.5504,-116.9583 408.718,-111.3341"/>
</g>
<!-- 10 -->
<g id="node11" class="node">
<title>10</title>
<path fill="none" stroke="#d85656" stroke-width="2" stroke-dasharray="5,2" d="M571,-108C571,-108 521,-108 521,-108 515,-108 509,-102 509,-96 509,-96 509,-84 509,-84 509,-78 515,-72 521,-72 521,-72 571,-72 571,-72 577,-72 583,-78 583,-84 583,-84 583,-96 583,-96 583,-102 577,-108 571,-108"/>
<text text-anchor="middle" x="546" y="-87.5" font-family="sans" font-size="10.00" fill="#000000">majiq_voila</text>
</g>
<!-- 3&#45;&gt;10 -->
<g id="edge20" class="edge">
<title>3&#45;&gt;10</title>
<path fill="none" stroke="#c0c0c0" stroke-width="2" d="M348.0221,-233.2338C422.3589,-230.831 585.6197,-220.9095 620,-180 630.2939,-167.7511 627.249,-158.2637 620,-144 613.6219,-131.4501 602.8076,-121.1229 591.3873,-112.9818"/>
<polygon fill="#c0c0c0" stroke="#c0c0c0" stroke-width="2" points="593.2891,-110.0434 583.0192,-107.4396 589.4238,-115.8795 593.2891,-110.0434"/>
</g>
<!-- 4 -->
<g id="node5" class="node">
<title>4</title>
<path fill="none" stroke="#56a2d8" stroke-width="2" stroke-dasharray="5,2" d="M347,-324C347,-324 275,-324 275,-324 269,-324 263,-318 263,-312 263,-312 263,-300 263,-300 263,-294 269,-288 275,-288 275,-288 347,-288 347,-288 353,-288 359,-294 359,-300 359,-300 359,-312 359,-312 359,-318 353,-324 347,-324"/>
<text text-anchor="middle" x="311" y="-303.5" font-family="sans" font-size="10.00" fill="#000000">majiq_gtf_to_gff</text>
</g>
<!-- 4&#45;&gt;3 -->
<g id="edge12" class="edge">
<title>4&#45;&gt;3</title>
<path fill="none" stroke="#c0c0c0" stroke-width="2" d="M311,-287.8314C311,-280.131 311,-270.9743 311,-262.4166"/>
<polygon fill="#c0c0c0" stroke="#c0c0c0" stroke-width="2" points="314.5001,-262.4132 311,-252.4133 307.5001,-262.4133 314.5001,-262.4132"/>
</g>
<!-- 5&#45;&gt;0 -->
<g id="edge4" class="edge">
<title>5&#45;&gt;0</title>
<path fill="none" stroke="#c0c0c0" stroke-width="2" d="M171.1883,-143.8991C173.0113,-125.0912 177.5888,-95.2177 189,-72 193.9399,-61.949 201.1747,-52.2248 208.4507,-43.8635"/>
<polygon fill="#c0c0c0" stroke="#c0c0c0" stroke-width="2" points="211.2023,-46.0409 215.3657,-36.2983 206.0355,-41.3181 211.2023,-46.0409"/>
</g>
<!-- 5&#45;&gt;8 -->
<g id="edge17" class="edge">
<title>5&#45;&gt;8</title>
<path fill="none" stroke="#c0c0c0" stroke-width="2" d="M186.4022,-143.8314C194.0415,-135.3694 203.2683,-125.1489 211.6207,-115.8971"/>
<polygon fill="#c0c0c0" stroke="#c0c0c0" stroke-width="2" points="214.2738,-118.1813 218.3769,-108.4133 209.0779,-113.4906 214.2738,-118.1813"/>
</g>
<!-- 6&#45;&gt;0 -->
<g id="edge5" class="edge">
<title>6&#45;&gt;0</title>
<path fill="none" stroke="#c0c0c0" stroke-width="2" d="M342.422,-143.7623C320.7956,-118.4436 281.5676,-72.5182 256.9735,-43.7251"/>
<polygon fill="#c0c0c0" stroke="#c0c0c0" stroke-width="2" points="259.6078,-41.4202 250.4515,-36.0896 254.2851,-45.9666 259.6078,-41.4202"/>
</g>
<!-- 6&#45;&gt;9 -->
<g id="edge19" class="edge">
<title>6&#45;&gt;9</title>
<path fill="none" stroke="#c0c0c0" stroke-width="2" d="M359.7664,-143.8314C360.515,-136.131 361.4053,-126.9743 362.2373,-118.4166"/>
<polygon fill="#c0c0c0" stroke="#c0c0c0" stroke-width="2" points="365.7256,-118.7051 363.2098,-108.4133 358.7585,-118.0276 365.7256,-118.7051"/>
</g>
<!-- 7&#45;&gt;0 -->
<g id="edge6" class="edge">
<title>7&#45;&gt;0</title>
<path fill="none" stroke="#c0c0c0" stroke-width="2" d="M523.3409,-143.8799C497.4698,-123.9311 453.2488,-92.0373 411,-72 365.2664,-50.31 308.7624,-34.7904 272.3156,-26.1075"/>
<polygon fill="#c0c0c0" stroke="#c0c0c0" stroke-width="2" points="272.6716,-22.5968 262.1383,-23.7367 271.0834,-29.4143 272.6716,-22.5968"/>
</g>
<!-- 7&#45;&gt;10 -->
<g id="edge21" class="edge">
<title>7&#45;&gt;10</title>
<path fill="none" stroke="#c0c0c0" stroke-width="2" d="M546,-143.8314C546,-136.131 546,-126.9743 546,-118.4166"/>
<polygon fill="#c0c0c0" stroke="#c0c0c0" stroke-width="2" points="549.5001,-118.4132 546,-108.4133 542.5001,-118.4133 549.5001,-118.4132"/>
</g>
<!-- 8&#45;&gt;0 -->
<g id="edge7" class="edge">
<title>8&#45;&gt;0</title>
<path fill="none" stroke="#c0c0c0" stroke-width="2" d="M235,-71.8314C235,-64.131 235,-54.9743 235,-46.4166"/>
<polygon fill="#c0c0c0" stroke="#c0c0c0" stroke-width="2" points="238.5001,-46.4132 235,-36.4133 231.5001,-46.4133 238.5001,-46.4132"/>
</g>
<!-- 9&#45;&gt;0 -->
<g id="edge8" class="edge">
<title>9&#45;&gt;0</title>
<path fill="none" stroke="#c0c0c0" stroke-width="2" d="M332.1955,-71.8314C313.4945,-61.4739 290.0368,-48.4819 270.8517,-37.8563"/>
<polygon fill="#c0c0c0" stroke="#c0c0c0" stroke-width="2" points="272.5377,-34.7892 262.094,-33.0059 269.1462,-40.9127 272.5377,-34.7892"/>
</g>
<!-- 10&#45;&gt;0 -->
<g id="edge9" class="edge">
<title>10&#45;&gt;0</title>
<path fill="none" stroke="#c0c0c0" stroke-width="2" d="M508.9023,-81.1613C496.5333,-78.2283 482.6766,-74.9576 470,-72 400.0734,-55.6853 318.3519,-36.9906 272.0341,-26.4295"/>
<polygon fill="#c0c0c0" stroke="#c0c0c0" stroke-width="2" points="272.6807,-22.9872 262.153,-24.1774 271.1252,-29.8121 272.6807,-22.9872"/>
</g>
</g>
</svg>
